{
  "asset": {
    "version": "2.0",
    "generator": "Sketchup glTF Exporter v1.2.6 by Centaur"
  },
  "scene": 0,
  "scenes": [
    {
      "nodes": [
        0
      ]
    }
  ],
  "samplers": [
    {
    }
  ],
  "nodes": [
    {
      "name": "root",
      "mesh": 0
    }
  ],
  "materials": [
    {
      "pbrMetallicRoughness": {
        "baseColorTexture": {
          "index": 0
        },
        "metallicFactor": 0.1,
        "roughnessFactor": 0.9
      },
      "name": "techo"
    },
    {
      "pbrMetallicRoughness": {
        "baseColorTexture": {
          "index": 1
        },
        "metallicFactor": 0.1,
        "roughnessFactor": 0.9
      },
      "name": "tex2"
    },
    {
      "pbrMetallicRoughness": {
        "baseColorTexture": {
          "index": 2
        },
        "metallicFactor": 0.1,
        "roughnessFactor": 0.9
      },
      "name": "tex1"
    }
  ],
  "images": [
    {
      "bufferView": 0,
      "mimeType": "image/jpeg"
    },
    {
      "bufferView": 1,
      "mimeType": "image/jpeg"
    },
    {
      "bufferView": 2,
      "mimeType": "image/jpeg"
    }
  ],
  "textures": [
    {
      "source": 0,
      "sampler": 0
    },
    {
      "source": 1,
      "sampler": 0
    },
    {
      "source": 2,
      "sampler": 0
    }
  ],
  "meshes": [
    {
      "primitives": [
        {
          "attributes": {
            "POSITION": 0,
            "NORMAL": 1,
            "TEXCOORD_0": 2
          },
          "indices": 3,
          "mode": 4,
          "material": 0
        },
        {
          "attributes": {
            "POSITION": 0,
            "NORMAL": 1,
            "TEXCOORD_0": 2
          },
          "indices": 4,
          "mode": 4,
          "material": 1
        },
        {
          "attributes": {
            "POSITION": 0,
            "NORMAL": 1,
            "TEXCOORD_0": 2
          },
          "indices": 5,
          "mode": 4,
          "material": 2
        }
      ]
    }
  ],
  "accessors": [
    {
      "bufferView": 3,
      "componentType": 5126,
      "count": 118,
      "type": "VEC3",
      "min": [
        -15.620381681031299,
        -1.5939640095264e-14,
        -74.18434390874484
      ],
      "max": [
        33.9828913852107,
        185.00000000000003,
        -18.54540628996648
      ]
    },
    {
      "bufferView": 4,
      "componentType": 5126,
      "count": 118,
      "type": "VEC3",
      "min": [
        -0.9956467787244222,
        -9.434341782099897e-16,
        -0.9918690452099845
      ],
      "max": [
        0.9918690452099843,
        1.0,
        0.9918690452099843
      ]
    },
    {
      "bufferView": 5,
      "componentType": 5126,
      "count": 118,
      "type": "VEC2",
      "min": [
        -3.2093249298180986,
        -0.8151572456383043
      ],
      "max": [
        23.10098764111772,
        1.0000000000000004
      ]
    },
    {
      "bufferView": 6,
      "componentType": 5121,
      "count": 60,
      "type": "SCALAR"
    },
    {
      "bufferView": 6,
      "componentType": 5121,
      "count": 123,
      "type": "SCALAR",
      "byteOffset": 60
    },
    {
      "bufferView": 6,
      "componentType": 5121,
      "count": 42,
      "type": "SCALAR",
      "byteOffset": 183
    }
  ],
  "bufferViews": [
    {
      "buffer": 0,
      "byteLength": 48865
    },
    {
      "buffer": 0,
      "byteOffset": 48865,
      "byteLength": 12942
    },
    {
      "buffer": 0,
      "byteOffset": 61807,
      "byteLength": 115757
    },
    {
      "buffer": 0,
      "byteOffset": 177564,
      "byteLength": 1416,
      "target": 34962,
      "byteStride": 12
    },
    {
      "buffer": 0,
      "byteOffset": 178980,
      "byteLength": 1416,
      "target": 34962,
      "byteStride": 12
    },
    {
      "buffer": 0,
      "byteOffset": 180400,
      "byteLength": 944,
      "target": 34962,
      "byteStride": 8
    },
    {
      "buffer": 0,
      "byteOffset": 181344,
      "byteLength": 225,
      "target": 34963
    }
  ],
  "buffers": [
    {
      "uri": "data:application/octet-stream;base64,",
      "byteLength": 181569
    }
  ]
}