{
  "asset": {
    "version": "2.0",
    "generator": "Sketchup glTF Exporter v1.2.6 by Centaur"
  },
  "scene": 0,
  "scenes": [
    {
      "nodes": [
        0
      ]
    }
  ],
  "samplers": [
    {
    }
  ],
  "nodes": [
    {
      "name": "root",
      "children": [
        1
      ]
    },
    {
      "children": [
        2,
        3,
        4,
        5,
        6,
        7,
        8,
        9
      ]
    },
    {
      "mesh": 0
    },
    {
      "name": "组件#1",
      "mesh": 1
    },
    {
      "name": "组件#1",
      "mesh": 2
    },
    {
      "name": "Difference1",
      "mesh": 3
    },
    {
      "name": "交点",
      "mesh": 4
    },
    {
      "name": "组件#3",
      "mesh": 5
    },
    {
      "name": "组件#3",
      "mesh": 6
    },
    {
      "mesh": 7
    }
  ],
  "materials": [
    {
      "pbrMetallicRoughness": {
        "baseColorTexture": {
          "index": 0
        },
        "metallicFactor": 0.1,
        "roughnessFactor": 0.9
      },
      "name": "cgm902b0d9a23529f0ad3811877ae52a5ef377_1_#1"
    },
    {
      "pbrMetallicRoughness": {
        "baseColorFactor": [
          0.2176,
          0.2176,
          0.2176,
          1.0
        ],
        "metallicFactor": 0.1,
        "roughnessFactor": 0.9
      },
      "name": "default material",
      "doubleSided": true
    },
    {
      "pbrMetallicRoughness": {
        "baseColorTexture": {
          "index": 1
        },
        "metallicFactor": 0.1,
        "roughnessFactor": 0.9
      },
      "name": "cgm902b0d9a23529f0ad3811877ae52a5ef377_1_"
    },
    {
      "pbrMetallicRoughness": {
        "baseColorTexture": {
          "index": 2
        },
        "metallicFactor": 0.1,
        "roughnessFactor": 0.9
      },
      "name": "33546422#1"
    },
    {
      "pbrMetallicRoughness": {
        "baseColorTexture": {
          "index": 3
        },
        "metallicFactor": 0.1,
        "roughnessFactor": 0.9
      },
      "name": "Google Earth Snapshot"
    },
    {
      "pbrMetallicRoughness": {
        "baseColorTexture": {
          "index": 4
        },
        "metallicFactor": 0.1,
        "roughnessFactor": 0.9
      },
      "name": "33546422#2"
    },
    {
      "pbrMetallicRoughness": {
        "baseColorTexture": {
          "index": 5
        },
        "metallicFactor": 0.1,
        "roughnessFactor": 0.9
      },
      "name": "33546422#3"
    },
    {
      "pbrMetallicRoughness": {
        "baseColorTexture": {
          "index": 6
        },
        "metallicFactor": 0.1,
        "roughnessFactor": 0.9
      },
      "name": "33546422#4"
    },
    {
      "pbrMetallicRoughness": {
        "baseColorTexture": {
          "index": 7
        },
        "metallicFactor": 0.1,
        "roughnessFactor": 0.9
      },
      "name": "40003852副本",
      "doubleSided": true
    },
    {
      "pbrMetallicRoughness": {
        "baseColorTexture": {
          "index": 8
        },
        "metallicFactor": 0.1,
        "roughnessFactor": 0.9
      },
      "name": "20071023120200109#1"
    },
    {
      "pbrMetallicRoughness": {
        "baseColorTexture": {
          "index": 9
        },
        "metallicFactor": 0.1,
        "roughnessFactor": 0.9
      },
      "name": "33546422z"
    }
  ],
  "images": [
    {
      "bufferView": 0,
      "mimeType": "image/jpeg"
    },
    {
      "bufferView": 1,
      "mimeType": "image/jpeg"
    },
    {
      "bufferView": 2,
      "mimeType": "image/jpeg"
    },
    {
      "bufferView": 3,
      "mimeType": "image/jpeg"
    },
    {
      "bufferView": 4,
      "mimeType": "image/jpeg"
    },
    {
      "bufferView": 5,
      "mimeType": "image/jpeg"
    },
    {
      "bufferView": 6,
      "mimeType": "image/jpeg"
    },
    {
      "bufferView": 7,
      "mimeType": "image/png"
    },
    {
      "bufferView": 8,
      "mimeType": "image/jpeg"
    },
    {
      "bufferView": 9,
      "mimeType": "image/jpeg"
    }
  ],
  "textures": [
    {
      "source": 0,
      "sampler": 0
    },
    {
      "source": 1,
      "sampler": 0
    },
    {
      "source": 2,
      "sampler": 0
    },
    {
      "source": 3,
      "sampler": 0
    },
    {
      "source": 4,
      "sampler": 0
    },
    {
      "source": 5,
      "sampler": 0
    },
    {
      "source": 6,
      "sampler": 0
    },
    {
      "source": 7,
      "sampler": 0
    },
    {
      "source": 8,
      "sampler": 0
    },
    {
      "source": 9,
      "sampler": 0
    }
  ],
  "meshes": [
    {
      "primitives": [
        {
          "attributes": {
            "POSITION": 2,
            "NORMAL": 3,
            "TEXCOORD_0": 4
          },
          "indices": 5,
          "mode": 4,
          "material": 0
        },
        {
          "attributes": {
            "POSITION": 0,
            "NORMAL": 1
          },
          "indices": 6,
          "mode": 4,
          "material": 1
        },
        {
          "attributes": {
            "POSITION": 2,
            "NORMAL": 3,
            "TEXCOORD_0": 4
          },
          "indices": 7,
          "mode": 4,
          "material": 2
        },
        {
          "attributes": {
            "POSITION": 2,
            "NORMAL": 3,
            "TEXCOORD_0": 4
          },
          "indices": 8,
          "mode": 4,
          "material": 3
        },
        {
          "attributes": {
            "POSITION": 2,
            "NORMAL": 3,
            "TEXCOORD_0": 4
          },
          "indices": 9,
          "mode": 4,
          "material": 4
        }
      ]
    },
    {
      "primitives": [
        {
          "attributes": {
            "POSITION": 2,
            "NORMAL": 3,
            "TEXCOORD_0": 4
          },
          "indices": 10,
          "mode": 4,
          "material": 5
        },
        {
          "attributes": {
            "POSITION": 2,
            "NORMAL": 3,
            "TEXCOORD_0": 4
          },
          "indices": 11,
          "mode": 4,
          "material": 3
        },
        {
          "attributes": {
            "POSITION": 2,
            "NORMAL": 3,
            "TEXCOORD_0": 4
          },
          "indices": 12,
          "mode": 4,
          "material": 6
        }
      ]
    },
    {
      "primitives": [
        {
          "attributes": {
            "POSITION": 2,
            "NORMAL": 3,
            "TEXCOORD_0": 4
          },
          "indices": 13,
          "mode": 4,
          "material": 5
        },
        {
          "attributes": {
            "POSITION": 2,
            "NORMAL": 3,
            "TEXCOORD_0": 4
          },
          "indices": 14,
          "mode": 4,
          "material": 3
        },
        {
          "attributes": {
            "POSITION": 2,
            "NORMAL": 3,
            "TEXCOORD_0": 4
          },
          "indices": 15,
          "mode": 4,
          "material": 6
        }
      ]
    },
    {
      "primitives": [
        {
          "attributes": {
            "POSITION": 2,
            "NORMAL": 3,
            "TEXCOORD_0": 4
          },
          "indices": 16,
          "mode": 4,
          "material": 7
        },
        {
          "attributes": {
            "POSITION": 2,
            "NORMAL": 3,
            "TEXCOORD_0": 4
          },
          "indices": 17,
          "mode": 4,
          "material": 0
        },
        {
          "attributes": {
            "POSITION": 2,
            "NORMAL": 3,
            "TEXCOORD_0": 4
          },
          "indices": 18,
          "mode": 4,
          "material": 4
        }
      ]
    },
    {
      "primitives": [
        {
          "attributes": {
            "POSITION": 2,
            "NORMAL": 3,
            "TEXCOORD_0": 4
          },
          "indices": 19,
          "mode": 4,
          "material": 4
        },
        {
          "attributes": {
            "POSITION": 2,
            "NORMAL": 3,
            "TEXCOORD_0": 4
          },
          "indices": 20,
          "mode": 4,
          "material": 8
        }
      ]
    },
    {
      "primitives": [
        {
          "attributes": {
            "POSITION": 2,
            "NORMAL": 3,
            "TEXCOORD_0": 4
          },
          "indices": 21,
          "mode": 4,
          "material": 9
        }
      ]
    },
    {
      "primitives": [
        {
          "attributes": {
            "POSITION": 2,
            "NORMAL": 3,
            "TEXCOORD_0": 4
          },
          "indices": 22,
          "mode": 4,
          "material": 9
        }
      ]
    },
    {
      "primitives": [
        {
          "attributes": {
            "POSITION": 2,
            "NORMAL": 3,
            "TEXCOORD_0": 4
          },
          "indices": 23,
          "mode": 4,
          "material": 10
        },
        {
          "attributes": {
            "POSITION": 0,
            "NORMAL": 1
          },
          "indices": 24,
          "mode": 4,
          "material": 1
        }
      ]
    }
  ],
  "accessors": [
    {
      "bufferView": 10,
      "componentType": 5126,
      "count": 27,
      "type": "VEC3",
      "min": [
        -61.754006748534295,
        -8.340039450632745e-15,
        -45.52229616304524
      ],
      "max": [
        20.513416137546834,
        215.8979821925528,
        30.369774231216283
      ]
    },
    {
      "bufferView": 11,
      "componentType": 5126,
      "count": 27,
      "type": "VEC3",
      "min": [
        -0.9494818075264997,
        -1.0,
        -6.123233995736767e-17
      ],
      "max": [
        1.594766314781404e-19,
        1.0,
        0.3138220788539437
      ]
    },
    {
      "bufferView": 12,
      "componentType": 5126,
      "count": 1097,
      "type": "VEC3",
      "min": [
        -61.754006748534295,
        -8.340039450632745e-15,
        -45.52229616304524
      ],
      "max": [
        20.513416137546834,
        256.93798219255274,
        30.36977423121631
      ]
    },
    {
      "bufferView": 13,
      "componentType": 5126,
      "count": 1097,
      "type": "VEC3",
      "min": [
        -0.9536528741820823,
        -1.0,
        -0.9996934740623136
      ],
      "max": [
        0.9536528741820823,
        1.0,
        0.9996934740623136
      ]
    },
    {
      "bufferView": 14,
      "componentType": 5126,
      "count": 1097,
      "type": "VEC2",
      "min": [
        -2.000000000000003,
        -0.272669284438656
      ],
      "max": [
        24.27560623555635,
        1.651233568391093
      ]
    },
    {
      "bufferView": 16,
      "componentType": 5123,
      "count": 132,
      "type": "SCALAR"
    },
    {
      "bufferView": 15,
      "componentType": 5121,
      "count": 54,
      "type": "SCALAR"
    },
    {
      "bufferView": 16,
      "componentType": 5123,
      "count": 60,
      "type": "SCALAR",
      "byteOffset": 264
    },
    {
      "bufferView": 16,
      "componentType": 5123,
      "count": 24,
      "type": "SCALAR",
      "byteOffset": 384
    },
    {
      "bufferView": 16,
      "componentType": 5123,
      "count": 54,
      "type": "SCALAR",
      "byteOffset": 432
    },
    {
      "bufferView": 16,
      "componentType": 5123,
      "count": 6,
      "type": "SCALAR",
      "byteOffset": 540
    },
    {
      "bufferView": 16,
      "componentType": 5123,
      "count": 24,
      "type": "SCALAR",
      "byteOffset": 552
    },
    {
      "bufferView": 16,
      "componentType": 5123,
      "count": 12,
      "type": "SCALAR",
      "byteOffset": 600
    },
    {
      "bufferView": 16,
      "componentType": 5123,
      "count": 6,
      "type": "SCALAR",
      "byteOffset": 624
    },
    {
      "bufferView": 16,
      "componentType": 5123,
      "count": 24,
      "type": "SCALAR",
      "byteOffset": 636
    },
    {
      "bufferView": 16,
      "componentType": 5123,
      "count": 12,
      "type": "SCALAR",
      "byteOffset": 684
    },
    {
      "bufferView": 16,
      "componentType": 5123,
      "count": 144,
      "type": "SCALAR",
      "byteOffset": 708
    },
    {
      "bufferView": 16,
      "componentType": 5123,
      "count": 66,
      "type": "SCALAR",
      "byteOffset": 996
    },
    {
      "bufferView": 16,
      "componentType": 5123,
      "count": 66,
      "type": "SCALAR",
      "byteOffset": 1128
    },
    {
      "bufferView": 16,
      "componentType": 5123,
      "count": 1698,
      "type": "SCALAR",
      "byteOffset": 1260
    },
    {
      "bufferView": 16,
      "componentType": 5123,
      "count": 144,
      "type": "SCALAR",
      "byteOffset": 4656
    },
    {
      "bufferView": 16,
      "componentType": 5123,
      "count": 276,
      "type": "SCALAR",
      "byteOffset": 4944
    },
    {
      "bufferView": 16,
      "componentType": 5123,
      "count": 276,
      "type": "SCALAR",
      "byteOffset": 5496
    },
    {
      "bufferView": 16,
      "componentType": 5123,
      "count": 48,
      "type": "SCALAR",
      "byteOffset": 6048
    },
    {
      "bufferView": 15,
      "componentType": 5121,
      "count": 9,
      "type": "SCALAR",
      "byteOffset": 54
    }
  ],
  "bufferViews": [
    {
      "buffer": 0,
      "byteLength": 924
    },
    {
      "buffer": 0,
      "byteOffset": 924,
      "byteLength": 1282
    },
    {
      "buffer": 0,
      "byteOffset": 2206,
      "byteLength": 17830
    },
    {
      "buffer": 0,
      "byteOffset": 20036,
      "byteLength": 153926
    },
    {
      "buffer": 0,
      "byteOffset": 173962,
      "byteLength": 1220
    },
    {
      "buffer": 0,
      "byteOffset": 175182,
      "byteLength": 2234
    },
    {
      "buffer": 0,
      "byteOffset": 177416,
      "byteLength": 24930
    },
    {
      "buffer": 0,
      "byteOffset": 202346,
      "byteLength": 9668
    },
    {
      "buffer": 0,
      "byteOffset": 212014,
      "byteLength": 4917
    },
    {
      "buffer": 0,
      "byteOffset": 216931,
      "byteLength": 7903
    },
    {
      "buffer": 0,
      "byteOffset": 224844,
      "byteLength": 324,
      "target": 34962,
      "byteStride": 12
    },
    {
      "buffer": 0,
      "byteOffset": 225168,
      "byteLength": 324,
      "target": 34962,
      "byteStride": 12
    },
    {
      "buffer": 0,
      "byteOffset": 225492,
      "byteLength": 13164,
      "target": 34962,
      "byteStride": 12
    },
    {
      "buffer": 0,
      "byteOffset": 238656,
      "byteLength": 13164,
      "target": 34962,
      "byteStride": 12
    },
    {
      "buffer": 0,
      "byteOffset": 251824,
      "byteLength": 8776,
      "target": 34962,
      "byteStride": 8
    },
    {
      "buffer": 0,
      "byteOffset": 260600,
      "byteLength": 63,
      "target": 34963
    },
    {
      "buffer": 0,
      "byteOffset": 260664,
      "byteLength": 6144,
      "target": 34963
    }
  ],
  "buffers": [
    {
      "uri": "data:application/octet-stream;base64,",
      "byteLength": 266808
    }
  ]
}