{
  "asset": {
    "version": "2.0",
    "generator": "Sketchup glTF Exporter v1.2.6 by Centaur"
  },
  "scene": 0,
  "scenes": [
    {
      "nodes": [
        0
      ]
    }
  ],
  "samplers": [
    {
    }
  ],
  "nodes": [
    {
      "name": "root",
      "children": [
        1
      ]
    },
    {
      "name": "Oriental Pearl TV Tower",
      "children": [
        2,
        3,
        4,
        5,
        6,
        7,
        8,
        9,
        10,
        11,
        12,
        13
      ],
      "mesh": 12
    },
    {
      "mesh": 0
    },
    {
      "mesh": 1
    },
    {
      "mesh": 2
    },
    {
      "mesh": 3
    },
    {
      "mesh": 4
    },
    {
      "mesh": 5
    },
    {
      "mesh": 6
    },
    {
      "mesh": 7
    },
    {
      "mesh": 8
    },
    {
      "mesh": 9
    },
    {
      "mesh": 10
    },
    {
      "mesh": 11
    }
  ],
  "materials": [
    {
      "pbrMetallicRoughness": {
        "baseColorFactor": [
          0.2176,
          0.2176,
          0.2176,
          1.0
        ],
        "metallicFactor": 0.1,
        "roughnessFactor": 0.9
      },
      "name": "default material",
      "doubleSided": true
    },
    {
      "pbrMetallicRoughness": {
        "baseColorTexture": {
          "index": 0
        },
        "metallicFactor": 0.1,
        "roughnessFactor": 0.9
      },
      "name": "jingMaoView_750#1"
    },
    {
      "pbrMetallicRoughness": {
        "baseColorTexture": {
          "index": 1
        },
        "metallicFactor": 0.1,
        "roughnessFactor": 0.9
      },
      "name": "jingMaoView_750#4"
    },
    {
      "pbrMetallicRoughness": {
        "baseColorTexture": {
          "index": 2
        },
        "metallicFactor": 0.1,
        "roughnessFactor": 0.9
      },
      "name": "jingMaoView_750#3"
    },
    {
      "pbrMetallicRoughness": {
        "baseColorTexture": {
          "index": 3
        },
        "metallicFactor": 0.1,
        "roughnessFactor": 0.9
      },
      "name": "jingMaoView_750#10"
    },
    {
      "pbrMetallicRoughness": {
        "baseColorTexture": {
          "index": 4
        },
        "metallicFactor": 0.1,
        "roughnessFactor": 0.9
      },
      "name": "jingMaoView_750#9"
    },
    {
      "pbrMetallicRoughness": {
        "baseColorTexture": {
          "index": 5
        },
        "metallicFactor": 0.1,
        "roughnessFactor": 0.9
      },
      "name": "Google Earth Snapshot",
      "doubleSided": true
    },
    {
      "pbrMetallicRoughness": {
        "baseColorTexture": {
          "index": 6
        },
        "metallicFactor": 0.1,
        "roughnessFactor": 0.9
      },
      "name": "jingMaoView_750#6"
    },
    {
      "pbrMetallicRoughness": {
        "baseColorTexture": {
          "index": 7
        },
        "metallicFactor": 0.1,
        "roughnessFactor": 0.9
      },
      "name": "jingMaoView_750#7"
    },
    {
      "pbrMetallicRoughness": {
        "baseColorTexture": {
          "index": 8
        },
        "metallicFactor": 0.1,
        "roughnessFactor": 0.9
      },
      "name": "jingMaoView_750#11"
    },
    {
      "pbrMetallicRoughness": {
        "baseColorFactor": [
          0.4045,
          0.4045,
          0.4045,
          1.0
        ],
        "metallicFactor": 0.1,
        "roughnessFactor": 0.9
      },
      "name": "<LightGray>"
    },
    {
      "pbrMetallicRoughness": {
        "baseColorTexture": {
          "index": 9
        },
        "metallicFactor": 0.1,
        "roughnessFactor": 0.9
      },
      "name": "jingMaoView_750#13"
    },
    {
      "pbrMetallicRoughness": {
        "baseColorTexture": {
          "index": 10
        },
        "metallicFactor": 0.1,
        "roughnessFactor": 0.9
      },
      "name": "Fencing_Chain_Link",
      "doubleSided": true
    },
    {
      "pbrMetallicRoughness": {
        "baseColorTexture": {
          "index": 11
        },
        "metallicFactor": 0.1,
        "roughnessFactor": 0.9
      },
      "name": "jingMaoView_750#12"
    },
    {
      "pbrMetallicRoughness": {
        "baseColorTexture": {
          "index": 12
        },
        "metallicFactor": 0.1,
        "roughnessFactor": 0.9
      },
      "name": "istockphoto_6054090-camphor-tree#1",
      "doubleSided": true
    },
    {
      "pbrMetallicRoughness": {
        "baseColorTexture": {
          "index": 13
        },
        "metallicFactor": 0.1,
        "roughnessFactor": 0.9
      },
      "name": "Oriental_Pearl%20Tower_01434#1"
    }
  ],
  "images": [
    {
      "bufferView": 0,
      "mimeType": "image/jpeg"
    },
    {
      "bufferView": 1,
      "mimeType": "image/jpeg"
    },
    {
      "bufferView": 2,
      "mimeType": "image/jpeg"
    },
    {
      "bufferView": 3,
      "mimeType": "image/jpeg"
    },
    {
      "bufferView": 4,
      "mimeType": "image/jpeg"
    },
    {
      "bufferView": 5,
      "mimeType": "image/jpeg"
    },
    {
      "bufferView": 6,
      "mimeType": "image/jpeg"
    },
    {
      "bufferView": 7,
      "mimeType": "image/jpeg"
    },
    {
      "bufferView": 8,
      "mimeType": "image/jpeg"
    },
    {
      "bufferView": 9,
      "mimeType": "image/jpeg"
    },
    {
      "bufferView": 10,
      "mimeType": "image/png"
    },
    {
      "bufferView": 11,
      "mimeType": "image/jpeg"
    },
    {
      "bufferView": 12,
      "mimeType": "image/png"
    },
    {
      "bufferView": 13,
      "mimeType": "image/jpeg"
    }
  ],
  "textures": [
    {
      "source": 0,
      "sampler": 0
    },
    {
      "source": 1,
      "sampler": 0
    },
    {
      "source": 2,
      "sampler": 0
    },
    {
      "source": 3,
      "sampler": 0
    },
    {
      "source": 4,
      "sampler": 0
    },
    {
      "source": 5,
      "sampler": 0
    },
    {
      "source": 6,
      "sampler": 0
    },
    {
      "source": 7,
      "sampler": 0
    },
    {
      "source": 8,
      "sampler": 0
    },
    {
      "source": 9,
      "sampler": 0
    },
    {
      "source": 10,
      "sampler": 0
    },
    {
      "source": 11,
      "sampler": 0
    },
    {
      "source": 12,
      "sampler": 0
    },
    {
      "source": 13,
      "sampler": 0
    }
  ],
  "meshes": [
    {
      "primitives": [
        {
          "attributes": {
            "POSITION": 2,
            "NORMAL": 3,
            "TEXCOORD_0": 4
          },
          "indices": 5,
          "mode": 4,
          "material": 14
        }
      ]
    },
    {
      "primitives": [
        {
          "attributes": {
            "POSITION": 2,
            "NORMAL": 3,
            "TEXCOORD_0": 4
          },
          "indices": 6,
          "mode": 4,
          "material": 14
        }
      ]
    },
    {
      "primitives": [
        {
          "attributes": {
            "POSITION": 2,
            "NORMAL": 3,
            "TEXCOORD_0": 4
          },
          "indices": 7,
          "mode": 4,
          "material": 14
        }
      ]
    },
    {
      "primitives": [
        {
          "attributes": {
            "POSITION": 2,
            "NORMAL": 3,
            "TEXCOORD_0": 4
          },
          "indices": 8,
          "mode": 4,
          "material": 14
        }
      ]
    },
    {
      "primitives": [
        {
          "attributes": {
            "POSITION": 2,
            "NORMAL": 3,
            "TEXCOORD_0": 4
          },
          "indices": 9,
          "mode": 4,
          "material": 14
        }
      ]
    },
    {
      "primitives": [
        {
          "attributes": {
            "POSITION": 2,
            "NORMAL": 3,
            "TEXCOORD_0": 4
          },
          "indices": 10,
          "mode": 4,
          "material": 14
        }
      ]
    },
    {
      "primitives": [
        {
          "attributes": {
            "POSITION": 2,
            "NORMAL": 3,
            "TEXCOORD_0": 4
          },
          "indices": 11,
          "mode": 4,
          "material": 14
        }
      ]
    },
    {
      "primitives": [
        {
          "attributes": {
            "POSITION": 2,
            "NORMAL": 3,
            "TEXCOORD_0": 4
          },
          "indices": 12,
          "mode": 4,
          "material": 14
        }
      ]
    },
    {
      "primitives": [
        {
          "attributes": {
            "POSITION": 2,
            "NORMAL": 3,
            "TEXCOORD_0": 4
          },
          "indices": 13,
          "mode": 4,
          "material": 14
        }
      ]
    },
    {
      "primitives": [
        {
          "attributes": {
            "POSITION": 2,
            "NORMAL": 3,
            "TEXCOORD_0": 4
          },
          "indices": 14,
          "mode": 4,
          "material": 14
        }
      ]
    },
    {
      "primitives": [
        {
          "attributes": {
            "POSITION": 2,
            "NORMAL": 3,
            "TEXCOORD_0": 4
          },
          "indices": 15,
          "mode": 4,
          "material": 14
        }
      ]
    },
    {
      "primitives": [
        {
          "attributes": {
            "POSITION": 2,
            "NORMAL": 3,
            "TEXCOORD_0": 4
          },
          "indices": 16,
          "mode": 4,
          "material": 14
        }
      ]
    },
    {
      "primitives": [
        {
          "attributes": {
            "POSITION": 0,
            "NORMAL": 1
          },
          "indices": 17,
          "mode": 4,
          "material": 0
        },
        {
          "attributes": {
            "POSITION": 2,
            "NORMAL": 3,
            "TEXCOORD_0": 4
          },
          "indices": 18,
          "mode": 4,
          "material": 1
        },
        {
          "attributes": {
            "POSITION": 2,
            "NORMAL": 3,
            "TEXCOORD_0": 4
          },
          "indices": 19,
          "mode": 4,
          "material": 2
        },
        {
          "attributes": {
            "POSITION": 2,
            "NORMAL": 3,
            "TEXCOORD_0": 4
          },
          "indices": 20,
          "mode": 4,
          "material": 3
        },
        {
          "attributes": {
            "POSITION": 2,
            "NORMAL": 3,
            "TEXCOORD_0": 4
          },
          "indices": 21,
          "mode": 4,
          "material": 4
        },
        {
          "attributes": {
            "POSITION": 2,
            "NORMAL": 3,
            "TEXCOORD_0": 4
          },
          "indices": 22,
          "mode": 4,
          "material": 5
        },
        {
          "attributes": {
            "POSITION": 2,
            "NORMAL": 3,
            "TEXCOORD_0": 4
          },
          "indices": 23,
          "mode": 4,
          "material": 6
        },
        {
          "attributes": {
            "POSITION": 2,
            "NORMAL": 3,
            "TEXCOORD_0": 4
          },
          "indices": 24,
          "mode": 4,
          "material": 7
        },
        {
          "attributes": {
            "POSITION": 2,
            "NORMAL": 3,
            "TEXCOORD_0": 4
          },
          "indices": 25,
          "mode": 4,
          "material": 8
        },
        {
          "attributes": {
            "POSITION": 2,
            "NORMAL": 3,
            "TEXCOORD_0": 4
          },
          "indices": 26,
          "mode": 4,
          "material": 9
        },
        {
          "attributes": {
            "POSITION": 0,
            "NORMAL": 1
          },
          "indices": 27,
          "mode": 4,
          "material": 10
        },
        {
          "attributes": {
            "POSITION": 2,
            "NORMAL": 3,
            "TEXCOORD_0": 4
          },
          "indices": 28,
          "mode": 4,
          "material": 11
        },
        {
          "attributes": {
            "POSITION": 2,
            "NORMAL": 3,
            "TEXCOORD_0": 4
          },
          "indices": 29,
          "mode": 4,
          "material": 12
        },
        {
          "attributes": {
            "POSITION": 2,
            "NORMAL": 3,
            "TEXCOORD_0": 4
          },
          "indices": 30,
          "mode": 4,
          "material": 13
        },
        {
          "attributes": {
            "POSITION": 2,
            "NORMAL": 3,
            "TEXCOORD_0": 4
          },
          "indices": 31,
          "mode": 4,
          "material": 15
        }
      ]
    }
  ],
  "accessors": [
    {
      "bufferView": 14,
      "componentType": 5126,
      "count": 3730,
      "type": "VEC3",
      "min": [
        -95.09043172208267,
        -15.610000000000005,
        -86.40976303392988
      ],
      "max": [
        106.58972032075287,
        362.5594432105815,
        99.48593636041464
      ]
    },
    {
      "bufferView": 15,
      "componentType": 5126,
      "count": 3730,
      "type": "VEC3",
      "min": [
        -0.9998784066139079,
        -1.0,
        -0.9998868793157161
      ],
      "max": [
        0.9997433628977654,
        1.0,
        0.999715901590585
      ]
    },
    {
      "bufferView": 16,
      "componentType": 5126,
      "count": 23763,
      "type": "VEC3",
      "min": [
        -95.09043172208267,
        -15.610000000000005,
        -86.40976303392988
      ],
      "max": [
        106.58972032075287,
        470.48,
        99.48593636041464
      ]
    },
    {
      "bufferView": 17,
      "componentType": 5126,
      "count": 23763,
      "type": "VEC3",
      "min": [
        -0.9980267284282719,
        -1.0,
        -0.998026728428272
      ],
      "max": [
        0.998026728428272,
        1.0,
        0.9997069083560136
      ]
    },
    {
      "bufferView": 18,
      "componentType": 5126,
      "count": 23763,
      "type": "VEC2",
      "min": [
        -374.29016656546975,
        -84.97967917342326
      ],
      "max": [
        14.147627520984498,
        191.48593714607048
      ]
    },
    {
      "bufferView": 20,
      "componentType": 5123,
      "count": 24,
      "type": "SCALAR"
    },
    {
      "bufferView": 20,
      "componentType": 5123,
      "count": 24,
      "type": "SCALAR",
      "byteOffset": 48
    },
    {
      "bufferView": 20,
      "componentType": 5123,
      "count": 24,
      "type": "SCALAR",
      "byteOffset": 96
    },
    {
      "bufferView": 20,
      "componentType": 5123,
      "count": 24,
      "type": "SCALAR",
      "byteOffset": 144
    },
    {
      "bufferView": 20,
      "componentType": 5123,
      "count": 24,
      "type": "SCALAR",
      "byteOffset": 192
    },
    {
      "bufferView": 20,
      "componentType": 5123,
      "count": 24,
      "type": "SCALAR",
      "byteOffset": 240
    },
    {
      "bufferView": 20,
      "componentType": 5123,
      "count": 24,
      "type": "SCALAR",
      "byteOffset": 288
    },
    {
      "bufferView": 20,
      "componentType": 5123,
      "count": 24,
      "type": "SCALAR",
      "byteOffset": 336
    },
    {
      "bufferView": 20,
      "componentType": 5123,
      "count": 24,
      "type": "SCALAR",
      "byteOffset": 384
    },
    {
      "bufferView": 20,
      "componentType": 5123,
      "count": 24,
      "type": "SCALAR",
      "byteOffset": 432
    },
    {
      "bufferView": 20,
      "componentType": 5123,
      "count": 24,
      "type": "SCALAR",
      "byteOffset": 480
    },
    {
      "bufferView": 20,
      "componentType": 5123,
      "count": 24,
      "type": "SCALAR",
      "byteOffset": 528
    },
    {
      "bufferView": 19,
      "componentType": 5123,
      "count": 9246,
      "type": "SCALAR"
    },
    {
      "bufferView": 20,
      "componentType": 5123,
      "count": 3510,
      "type": "SCALAR",
      "byteOffset": 576
    },
    {
      "bufferView": 20,
      "componentType": 5123,
      "count": 2526,
      "type": "SCALAR",
      "byteOffset": 7596
    },
    {
      "bufferView": 20,
      "componentType": 5123,
      "count": 5793,
      "type": "SCALAR",
      "byteOffset": 12648
    },
    {
      "bufferView": 20,
      "componentType": 5123,
      "count": 669,
      "type": "SCALAR",
      "byteOffset": 24234
    },
    {
      "bufferView": 20,
      "componentType": 5123,
      "count": 14688,
      "type": "SCALAR",
      "byteOffset": 25572
    },
    {
      "bufferView": 20,
      "componentType": 5123,
      "count": 1422,
      "type": "SCALAR",
      "byteOffset": 54948
    },
    {
      "bufferView": 20,
      "componentType": 5123,
      "count": 384,
      "type": "SCALAR",
      "byteOffset": 57792
    },
    {
      "bufferView": 20,
      "componentType": 5123,
      "count": 1506,
      "type": "SCALAR",
      "byteOffset": 58560
    },
    {
      "bufferView": 20,
      "componentType": 5123,
      "count": 1008,
      "type": "SCALAR",
      "byteOffset": 61572
    },
    {
      "bufferView": 19,
      "componentType": 5123,
      "count": 720,
      "type": "SCALAR",
      "byteOffset": 18492
    },
    {
      "bufferView": 20,
      "componentType": 5123,
      "count": 4896,
      "type": "SCALAR",
      "byteOffset": 63588
    },
    {
      "bufferView": 20,
      "componentType": 5123,
      "count": 456,
      "type": "SCALAR",
      "byteOffset": 73380
    },
    {
      "bufferView": 20,
      "componentType": 5123,
      "count": 576,
      "type": "SCALAR",
      "byteOffset": 74292
    },
    {
      "bufferView": 20,
      "componentType": 5123,
      "count": 420,
      "type": "SCALAR",
      "byteOffset": 75444
    }
  ],
  "bufferViews": [
    {
      "buffer": 0,
      "byteLength": 3828
    },
    {
      "buffer": 0,
      "byteOffset": 3828,
      "byteLength": 4577
    },
    {
      "buffer": 0,
      "byteOffset": 8405,
      "byteLength": 1394
    },
    {
      "buffer": 0,
      "byteOffset": 9799,
      "byteLength": 2020
    },
    {
      "buffer": 0,
      "byteOffset": 11819,
      "byteLength": 781
    },
    {
      "buffer": 0,
      "byteOffset": 12600,
      "byteLength": 159026
    },
    {
      "buffer": 0,
      "byteOffset": 171626,
      "byteLength": 1916
    },
    {
      "buffer": 0,
      "byteOffset": 173542,
      "byteLength": 3225
    },
    {
      "buffer": 0,
      "byteOffset": 176767,
      "byteLength": 2466
    },
    {
      "buffer": 0,
      "byteOffset": 179233,
      "byteLength": 643
    },
    {
      "buffer": 0,
      "byteOffset": 179876,
      "byteLength": 6809
    },
    {
      "buffer": 0,
      "byteOffset": 186685,
      "byteLength": 700
    },
    {
      "buffer": 0,
      "byteOffset": 187385,
      "byteLength": 169864
    },
    {
      "buffer": 0,
      "byteOffset": 357249,
      "byteLength": 792
    },
    {
      "buffer": 0,
      "byteOffset": 358044,
      "byteLength": 44760,
      "target": 34962,
      "byteStride": 12
    },
    {
      "buffer": 0,
      "byteOffset": 402804,
      "byteLength": 44760,
      "target": 34962,
      "byteStride": 12
    },
    {
      "buffer": 0,
      "byteOffset": 447564,
      "byteLength": 285156,
      "target": 34962,
      "byteStride": 12
    },
    {
      "buffer": 0,
      "byteOffset": 732720,
      "byteLength": 285156,
      "target": 34962,
      "byteStride": 12
    },
    {
      "buffer": 0,
      "byteOffset": 1017880,
      "byteLength": 190104,
      "target": 34962,
      "byteStride": 8
    },
    {
      "buffer": 0,
      "byteOffset": 1207984,
      "byteLength": 19932,
      "target": 34963
    },
    {
      "buffer": 0,
      "byteOffset": 1227916,
      "byteLength": 76284,
      "target": 34963
    }
  ],
  "buffers": [
    {
      "uri": "data:application/octet-stream;base64,",
      "byteLength": 1304200
    }
  ]
}