{
  "asset": {
    "version": "2.0",
    "generator": "Sketchup glTF Exporter v1.2.6 by Centaur"
  },
  "scene": 0,
  "scenes": [
    {
      "nodes": [
        0
      ]
    }
  ],
  "samplers": [
    {
    }
  ],
  "nodes": [
    {
      "name": "root",
      "mesh": 0
    }
  ],
  "materials": [
    {
      "pbrMetallicRoughness": {
        "baseColorFactor": [
          0.2176,
          0.2176,
          0.2176,
          1.0
        ],
        "metallicFactor": 0.1,
        "roughnessFactor": 0.9
      },
      "name": "default material",
      "doubleSided": true
    },
    {
      "pbrMetallicRoughness": {
        "baseColorTexture": {
          "index": 0
        },
        "metallicFactor": 0.1,
        "roughnessFactor": 0.9
      },
      "name": "SOA EA#3"
    },
    {
      "pbrMetallicRoughness": {
        "baseColorTexture": {
          "index": 1
        },
        "metallicFactor": 0.1,
        "roughnessFactor": 0.9
      },
      "name": "SOA EA#2"
    },
    {
      "pbrMetallicRoughness": {
        "baseColorTexture": {
          "index": 2
        },
        "metallicFactor": 0.1,
        "roughnessFactor": 0.9
      },
      "name": "SOA 01#2"
    }
  ],
  "images": [
    {
      "bufferView": 0,
      "mimeType": "image/jpeg"
    },
    {
      "bufferView": 1,
      "mimeType": "image/jpeg"
    },
    {
      "bufferView": 2,
      "mimeType": "image/jpeg"
    }
  ],
  "textures": [
    {
      "source": 0,
      "sampler": 0
    },
    {
      "source": 1,
      "sampler": 0
    },
    {
      "source": 2,
      "sampler": 0
    }
  ],
  "meshes": [
    {
      "primitives": [
        {
          "attributes": {
            "POSITION": 0,
            "NORMAL": 1
          },
          "indices": 5,
          "mode": 4,
          "material": 0
        },
        {
          "attributes": {
            "POSITION": 2,
            "NORMAL": 3,
            "TEXCOORD_0": 4
          },
          "indices": 6,
          "mode": 4,
          "material": 1
        },
        {
          "attributes": {
            "POSITION": 2,
            "NORMAL": 3,
            "TEXCOORD_0": 4
          },
          "indices": 7,
          "mode": 4,
          "material": 2
        },
        {
          "attributes": {
            "POSITION": 2,
            "NORMAL": 3,
            "TEXCOORD_0": 4
          },
          "indices": 8,
          "mode": 4,
          "material": 3
        }
      ]
    }
  ],
  "accessors": [
    {
      "bufferView": 3,
      "componentType": 5126,
      "count": 681,
      "type": "VEC3",
      "min": [
        -54.54657304775972,
        -3.676934427679891e-15,
        -69.62803412409619
      ],
      "max": [
        47.67610674548002,
        38.99999999999999,
        32.594645669143716
      ]
    },
    {
      "bufferView": 4,
      "componentType": 5126,
      "count": 681,
      "type": "VEC3",
      "min": [
        -0.9966914962941793,
        -1.0,
        -0.9987735284175118
      ],
      "max": [
        0.9976016993263123,
        1.0,
        0.9987735284175203
      ]
    },
    {
      "bufferView": 5,
      "componentType": 5126,
      "count": 268,
      "type": "VEC3",
      "min": [
        -29.2082510450116,
        12.51972097192193,
        -33.83939460901225
      ],
      "max": [
        3.2153684829065576,
        16.35972097192193,
        -1.415775081094101
      ]
    },
    {
      "bufferView": 6,
      "componentType": 5126,
      "count": 268,
      "type": "VEC3",
      "min": [
        -0.9952001082848171,
        -3.102942434742168e-14,
        -0.9952001082848121
      ],
      "max": [
        0.9952001082848342,
        1.0,
        0.9952001082848146
      ]
    },
    {
      "bufferView": 7,
      "componentType": 5126,
      "count": 268,
      "type": "VEC2",
      "min": [
        -16.369812630790513,
        -17.965304087190255
      ],
      "max": [
        55.999999999998366,
        1.0000000000000036
      ]
    },
    {
      "bufferView": 8,
      "componentType": 5123,
      "count": 1566,
      "type": "SCALAR"
    },
    {
      "bufferView": 9,
      "componentType": 5123,
      "count": 156,
      "type": "SCALAR"
    },
    {
      "bufferView": 9,
      "componentType": 5123,
      "count": 66,
      "type": "SCALAR",
      "byteOffset": 312
    },
    {
      "bufferView": 9,
      "componentType": 5123,
      "count": 288,
      "type": "SCALAR",
      "byteOffset": 444
    }
  ],
  "bufferViews": [
    {
      "buffer": 0,
      "byteLength": 659
    },
    {
      "buffer": 0,
      "byteOffset": 659,
      "byteLength": 3998
    },
    {
      "buffer": 0,
      "byteOffset": 4657,
      "byteLength": 713
    },
    {
      "buffer": 0,
      "byteOffset": 5376,
      "byteLength": 8172,
      "target": 34962,
      "byteStride": 12
    },
    {
      "buffer": 0,
      "byteOffset": 13548,
      "byteLength": 8172,
      "target": 34962,
      "byteStride": 12
    },
    {
      "buffer": 0,
      "byteOffset": 21720,
      "byteLength": 3216,
      "target": 34962,
      "byteStride": 12
    },
    {
      "buffer": 0,
      "byteOffset": 24936,
      "byteLength": 3216,
      "target": 34962,
      "byteStride": 12
    },
    {
      "buffer": 0,
      "byteOffset": 28152,
      "byteLength": 2144,
      "target": 34962,
      "byteStride": 8
    },
    {
      "buffer": 0,
      "byteOffset": 30296,
      "byteLength": 3132,
      "target": 34963
    },
    {
      "buffer": 0,
      "byteOffset": 33428,
      "byteLength": 1020,
      "target": 34963
    }
  ],
  "buffers": [
    {
      "uri": "data:application/octet-stream;base64,",
      "byteLength": 34448
    }
  ]
}