<?xml version="1.0" standalone="no"?><!DOCTYPE svg PUBLIC "-//W3C//DTD SVG 1.1//EN" "http://www.w3.org/Graphics/SVG/1.1/DTD/svg11.dtd"><svg t="1680339691612" class="icon" viewBox="0 0 1024 1024" version="1.1" xmlns="http://www.w3.org/2000/svg" p-id="2068" width="48" height="48" xmlns:xlink="http://www.w3.org/1999/xlink"><path d="M648.79587841 512H375.20412159L512 128.85180664l136.79587841 383.14819336z" fill="#F15642" p-id="2069"></path><path d="M375.20412159 512h273.69153475L512 895.14819336 375.20412159 512z" fill="#e6e6e6" p-id="2070"></path><path d="M648.79587841 512L512 128.85180664v383.14819336h136.79587841z" fill="#C44138" p-id="2071"></path><path d="M512 512v383.14819336l136.79587841-383.14819336H512z" fill="#ffffff" p-id="2072"></path><path d="M484.6607802 539.3392198c15.06650423 15.06650423 39.61193536 15.06650423 54.77821828 0 15.06650423-15.06650423 15.06650423-39.61193536 0-54.77821828-15.06650423-15.06650423-39.61193536-15.06650423-54.77821828 0-15.1662829 15.1662829-15.1662829 39.71171404 0 54.77821828z" fill="#35495C" p-id="2073"></path><path d="M498.33038973 475.88030028c4.98890901 1.89578509 9.67848276 4.78935242 13.66961027 8.78047992 15.06650423 15.06650423 15.06650423 39.61193536 0 54.77821828-3.89134884 3.89134884-8.58092333 6.8846941-13.66961027 8.78047917 19.95563532 7.68291975 42.3059461-2.29489828 49.88908792-22.15075493 5.4877994-14.26827932 1.99556376-30.53212166-8.88025785-41.30816459-11.07537747-11.27493406-27.23944187-14.06872272-41.00883007-8.88025785z" fill="#123247" p-id="2074"></path></svg>