<?xml version="1.0" standalone="no"?><!DOCTYPE svg PUBLIC "-//W3C//DTD SVG 1.1//EN" "http://www.w3.org/Graphics/SVG/1.1/DTD/svg11.dtd"><svg t="1677496315709" class="icon" viewBox="0 0 1024 1024" version="1.1" xmlns="http://www.w3.org/2000/svg" p-id="1969" xmlns:xlink="http://www.w3.org/1999/xlink" width="48" height="48"><path d="M863.19313934 160.80686066c193.9639707 193.9639707 193.9639707 508.42230798 0 702.38627868S354.77083136 1057.15711005 160.80686066 863.19313934-33.15711005 354.77083136 160.80686066 160.80686066s508.42230798-193.9639707 702.38627868 0" fill="#053f4a" p-id="1970"></path><path d="M831.66379916 192.33620084c176.55431257 176.55431257 176.55431163 462.7732867 0 639.32759832S368.89051341 1008.21811172 192.33620084 831.66379916 15.78188828 368.89051341 192.33620084 192.33620084s462.7732867-176.55431163 639.32759832 0" fill="#216573" p-id="1971"></path><path d="M295.93390833 295.93390833l185.19950696 246.9326764 246.93267638 185.19950694-185.19950694-246.93267638z" fill="#ffffff" p-id="1972"></path><path d="M206.45167965 512l305.54832035 43.64535001 305.54832035-43.64535001-305.54832035-43.64535001z" fill="#ffffff" p-id="1973"></path><path d="M295.93390833 728.06609167l246.9326764-185.19950696 185.19950694-246.93267638-246.91724334 185.18407389z" fill="#ffffff" p-id="1974"></path><path d="M512 535.11697252l4.95313654-23.11697252-9.90627307 0z" fill="#053f4a" p-id="1975"></path><path d="M507.04686346 512l9.90627307 0-4.95313653-23.11697252z" fill="#053f4a" p-id="1976"></path><path d="M538.33948543 485.66051457a37.24965752 37.24965752 0 1 1-52.64385209 52.67897087A37.24965752 37.24965752 0 0 1 538.33948543 485.66051457" fill="#FFFFFF" p-id="1977"></path></svg>