<?xml version="1.0" standalone="no"?><!DOCTYPE svg PUBLIC "-//W3C//DTD SVG 1.1//EN" "http://www.w3.org/Graphics/SVG/1.1/DTD/svg11.dtd"><svg t="1689950587757" class="icon" viewBox="0 0 1024 1024" version="1.1" xmlns="http://www.w3.org/2000/svg" p-id="3587" xmlns:xlink="http://www.w3.org/1999/xlink" width="32" height="32"><path d="M512 512m-512 0a512 512 0 1 0 1024 0 512 512 0 1 0-1024 0Z" fill="#DEEED6" p-id="3588"></path><path d="M549.326698 599.647674s19.109231 3.312267 20.765365 7.643692c2.293108 6.369744 23.950236 4.076636 34.7788 23.058472 17.580493 15.542175 1.401344 26.498134 1.401344 26.498134s-10.44638 4.9684-13.376462-3.057477a67.391889 67.391889 0 0 1-26.370739 0l-7.898482-5.095795s-34.778801 3.821846-36.307539-1.910923c0 0-53.633242 2.420503-56.563324-3.694451s2.675292-17.835282 12.739487-21.274944c2.038318-8.662851 11.083354-16.306544 17.198308-11.720329 8.025877-12.739487 17.962677-22.931077 36.180144-10.955959 14.523016-16.688729 17.453098 0.509579 17.453098 0.50958z" fill="#45916A" p-id="3589"></path><path d="M599.647674 659.013685a7.388903 7.388903 0 0 1-3.312267 0 6.624533 6.624533 0 0 1-3.821846-3.821846 68.411048 68.411048 0 0 1-25.478975 0l-7.643693-5.095795c-6.242349 0.764369-33.632247 3.439662-36.562329-1.910923-7.261508 0-53.760637 2.165713-56.818114-4.076636a12.739487 12.739487 0 0 1 0-10.064195 21.657129 21.657129 0 0 1 12.739488-11.975119 18.854441 18.854441 0 0 1 10.446379-12.739487 8.153272 8.153272 0 0 1 7.134113 0 31.593929 31.593929 0 0 1 17.835283-15.542175 25.478975 25.478975 0 0 1 18.344862 4.713611c4.71361-5.47798 8.662851-7.898482 11.975118-7.006718s5.22319 6.114954 5.605374 7.643692c3.312267 0 19.236626 3.821846 20.765365 8.025877 0.891764 2.165713 4.331426 3.312267 8.917641 4.71361a41.02115 41.02115 0 0 1 25.478975 18.217468 19.491416 19.491416 0 0 1 8.280667 15.542174 17.070913 17.070913 0 0 1-7.006718 11.847724 18.344862 18.344862 0 0 1-6.879323 1.528738z m-6.751929-5.860164a0.636974 0.636974 0 0 1 0.636975 0 5.732769 5.732769 0 0 0 3.312266 3.694451 12.739487 12.739487 0 0 0 9.045036-1.019159 15.796964 15.796964 0 0 0 6.497139-10.701169 18.217467 18.217467 0 0 0-7.898482-14.650411 40.001991 40.001991 0 0 0-25.478975-17.580493c-4.9684-1.656133-8.535457-2.802687-9.554616-5.477979s-12.739487-5.987559-20.255785-7.388903-1.146554-5.987559-4.71361-7.006718-6.751928 1.656133-11.210749 6.879323h-0.764369a23.568052 23.568052 0 0 0-17.835283-4.71361 30.82956 30.82956 0 0 0-17.835282 15.15999 6.497139 6.497139 0 0 0-6.497139-0.764369 17.962677 17.962677 0 0 0-9.68201 12.739487 20.765365 20.765365 0 0 0-12.739488 11.338144 11.338144 11.338144 0 0 0 0 9.045036c2.038318 4.204031 35.415775 4.204031 56.053745 3.312267 0.891764 3.821846 22.294103 2.930082 35.670565 1.401343l7.771087 5.095795a67.901468 67.901468 0 0 0 25.478975 0z" fill="#45916A" p-id="3590"></path><path d="M183.958199 787.427718s12.739487-16.688729 18.854441-17.580492 17.325703 9.554616 22.294103 6.497138c9.299826-5.47798 17.198308-18.090072 34.524011-26.752923 2.675292-1.273949 12.739487 4.841005 25.478975 12.739487 1.273949 0.764369 2.930082 1.273949 3.949241 0l12.739487-12.739487c2.165713-4.076636 17.707888-43.951232 1.656134-53.378453s-21.529734-40.51157-47.900473-64.971386a2.293108 2.293108 0 0 0-1.656133 0c-41.658124 1.401344-68.411048-12.739487-59.875591-18.344862 2.802687-1.656133 6.497139 14.523016 40.129385 10.44638 2.293108 0 5.350585 0 3.694451-1.401343a107.648669 107.648669 0 0 1-14.39562-21.14755s7.261508-2.547897 8.025877-0.636974a67.519283 67.519283 0 0 0 10.573774 19.109231s4.9684 2.675292 5.47798 2.802687c2.930082 0 12.739487 1.910923 12.739487-5.477979a56.18114 56.18114 0 0 1-7.516297-33.377457h7.898482c-1.401344 22.803683 6.369744 43.059468 17.198308 38.218462 0 0 8.280667 1.401344 30.447375-26.625529 1.146554-1.401344 7.643692 0 7.643692 0a25.478975 25.478975 0 0 1-12.739487 18.472257c-18.599652 12.739487-22.294103 10.318985-21.147549 22.931077a69.812391 69.812391 0 0 0 28.663847 30.702165 135.930331 135.930331 0 0 1 23.313262 12.739488 2.802687 2.802687 0 0 0 3.949241-0.891764 96.310525 96.310525 0 0 1 57.455088-43.441653c43.314257-12.739487 63.697437-17.707888 68.920627-26.880318s19.746206-65.60836-3.694451-82.169694c-15.924359-6.114954-21.911918-32.230903-21.911919-32.230903a106.247325 106.247325 0 0 1 11.338144-50.95795c11.083354-26.880318-54.142822 7.261508-63.697437 12.739487a2.930082 2.930082 0 0 0-1.401344 1.783529 304.855934 304.855934 0 0 1-10.446379 35.797959c-3.184872 8.280667-15.924359 10.44638-26.880319 12.739488-33.377457 6.624533-33.377457-35.79796-41.658124-38.218463a121.27992 121.27992 0 0 0-50.95795 4.841006L254.789749 471.361035c-12.739487 10.573775-21.402339 27.007713-63.697437 27.007713-41.912914-3.567056-45.862155-9.172431-45.862155-9.172431l3.057477-2.038317s35.925355 10.828564 52.359293 4.076635c2.802687-1.146554-5.47798-1.273949-7.898482-2.802687-13.758646-8.790246-15.924359-15.924359-15.924359-15.924359l5.732769-1.273949a32.103508 32.103508 0 0 0 44.206021 14.523016c2.038318-0.891764-2.547897-1.528738-4.45882-2.675292a30.447375 30.447375 0 0 1-10.318985-13.503857h6.751928s-1.656133 3.439662 8.153272 6.497138a15.924359 15.924359 0 0 0 17.835283-6.497138c1.528738-2.420503 3.821846-14.395621 42.804677-16.306544h8.280667c28.281662-7.388903 31.721324 16.179149 31.721324 16.179149s-1.528738 33.122667 31.084349 20.255785a2.293108 2.293108 0 0 0 1.401344-1.019159 65.86315 65.86315 0 0 0 10.44638-23.185867 79.112217 79.112217 0 0 1 7.643692-30.192585c-1.528738-2.420503-3.821846-5.47798-7.643692-10.70117 0-0.764369-6.751928-10.318985-7.006718-11.210749-2.420503-10.318985-1.656133-9.172431 0-14.140831 0.636974-1.656133 0.636974-3.184872-1.019159-3.439661-18.854441-2.165713-18.217467-15.924359-18.217468-15.92436h2.547898c1.146554 11.592934 20.12839 11.720328 25.478975 10.064195a75.035581 75.035581 0 0 0-1.401344-16.179149h4.841005s-0.891764 18.472257 7.006719 19.109231c11.338144 0.764369 14.777805-12.739487 14.777805-12.739487h3.567056s2.930082 15.15999-20.12839 17.198308a15.15999 15.15999 0 0 0-8.280667 5.095795 24.714606 24.714606 0 0 0 0 7.516298 120.897736 120.897736 0 0 0 9.554616 12.357302c0 1.656133 9.045036 3.821846 10.701169 3.312267 11.338144-3.439662 36.180144-12.739487 54.142822-18.727046a15.796964 15.796964 0 0 1 6.751928 1.528738c11.847723 8.662851 17.835282 0 17.835283 0s14.013436-19.618811 9.299826-29.428216a8.535457 8.535457 0 0 0-3.949241-3.057477c-47.136104 0-45.862155-25.478975-45.862155-25.478975l5.095795 0.76437C434.161732 356.705648 452.888778 370.973874 471.361035 369.445136c1.019159 0 4.71361 0 5.095795-0.636975s-2.675292-2.802687-3.184872-3.821846c-10.064195-16.051754-6.242349-19.109231-6.242349-19.109231l6.879324 0.764369a22.294103 22.294103 0 0 0 20.510574 22.548893c21.274944 1.910923 22.803683-22.421498 22.803683-22.421498l4.331426-0.764369a28.663847 28.663847 0 0 1-17.070914 28.536452c-12.739487 7.134113 4.71361 29.810401 25.478975 25.478974a76.436925 76.436925 0 0 0 32.867878-18.599651c1.528738-1.401344 5.860164-3.312267 3.821846-3.821846C537.09679 369.445136 542.702165 356.705648 542.702165 356.705648h5.095795s-4.841005 10.44638 22.931077 16.943518a2.930082 2.930082 0 0 0 3.312267-1.528738c2.038318-4.458821 8.917641-18.854441 11.210749-23.822842 0-1.528738 4.458821 0.891764 5.987559 1.656134a29.046031 29.046031 0 0 1-2.420503 7.134113l-7.388902 9.299826c-1.656133 2.038318-3.439662 2.675292-0.891765 3.184871a55.289375 55.289375 0 0 0 41.27594-15.414779l3.057477 3.567056s-5.860164 15.924359-37.071909 17.835283c-1.146554 0-10.701169-1.146554-11.083354 0-8.025877 24.077631-40.001991 36.817119-40.00199 36.817118s-25.478975 1.528738-29.428216 54.015427c0 9.045036-2.547897 5.095795-1.528739 12.739487a22.421498 22.421498 0 0 0 18.472257 19.236626c20.765365 3.949241 78.475243 6.369744 89.176412 7.643693 0 0 27.899477 0 32.485693 5.987559 7.771087 9.9368-7.134113 28.281662-7.006718 29.046031s3.184872 1.783528 4.331426 1.910923c28.409057 3.057477 40.51157-1.656133 55.798955-22.548892a2.547897 2.547897 0 0 0 0-2.165713c-4.586215-17.835282-6.369744-13.758646-10.95596-16.816124a18.090072 18.090072 0 0 1-7.898482-17.325702c0-3.821846 10.19159-1.656133 10.19159-1.656134A11.847723 11.847723 0 0 0 700.671809 496.84001a12.739487 12.739487 0 0 0 11.592933-11.847723 85.99154 85.99154 0 0 0 0.76437-16.051755c0-1.528738 9.299826-4.9684 7.516297 0a56.435929 56.435929 0 0 0-0.764369 19.109232c-7.388903 15.66957 34.014431 24.459816 48.664842-9.427221a6.879323 6.879323 0 0 1 2.930082 0.891764s-2.675292 17.835282-13.758646 21.402339c-2.675292 0.891764 7.134113 0 9.9368 0a53.633242 53.633242 0 0 0 30.06519-13.886041 61.913909 61.913909 0 0 0 19.491416-1.783529c-1.273949 1.528738 1.656133 4.331426 1.656133 4.331426s-14.650411 1.528738-19.491415 2.675292c-12.739487 15.542175-48.537447 14.395621-53.760637 14.268226s-30.447375 3.694451-31.08435 8.280667-29.046031 43.696442-57.582483 45.73476c-4.71361 0-14.395621-5.095795-18.727046-0.636974s-10.318985 15.796964-7.516298 21.274944c1.656133 3.312267 34.524011 1.273949 39.365016 1.528738 27.899477 1.146554 52.231898-8.025877 54.270217 16.561334a22.548893 22.548893 0 0 0 0 2.930082 227.017666 227.017666 0 0 0 23.058472 62.550883 47.518288 47.518288 0 0 0 3.821846 3.312267 136.822095 136.822095 0 0 0 22.931078 11.720329 73.379448 73.379448 0 0 0 17.580492 2.802687c1.273949 0 3.949241-10.064195 3.949241-10.064195-8.790246-3.439662-17.962677-2.675292-21.911918-12.739488 3.567056 0 4.331426-1.656133 4.331426-1.656133s15.15999 16.561334 25.478975 5.22319a2.547897 2.547897 0 0 0 0.764369-1.783529l-1.910923-5.223189 5.987559 0.891764v6.751928a10.318985 10.318985 0 0 0 2.675292 4.204031c3.439662 1.273949 18.217467 2.293108 20.000995-9.427221 0-1.783528 6.242349-1.910923 6.242349-1.910923a29.683006 29.683006 0 0 1-31.593929 17.962677c-1.401344 0-3.567056-2.420503-4.331425 2.420503l-1.019159 5.605374c-3.057477 4.71361 1.910923 3.694451 3.694451 3.821847a100.769346 100.769346 0 0 0 53.633242-11.465539c7.261508-3.439662 2.165713-3.821846 0-4.9684a33.122667 33.122667 0 0 1-9.809405-7.771087s4.204031-1.401344 6.114954 0a20.38318 20.38318 0 0 0 16.051754 4.71361l2.420503-1.401344a64.971386 64.971386 0 0 1 19.36402-9.172431 85.354566 85.354566 0 0 0-16.688728 11.975119s-2.293108 0-2.675292 0.764369a107.011694 107.011694 0 0 1-77.710874 20.637969c-48.664842-3.949241-64.716596-27.899477-66.500124-30.829559v-0.636975a361.674048 361.674048 0 0 0-25.478975-48.919631s-3.312267-3.949241-3.949241-3.821846c-17.707888 1.783528-81.405325-3.694451-81.405325-3.694452s-21.911918 1.401344-12.739487-23.440657 29.810401-48.155263 2.802687-41.785519c-27.644688-0.764369-66.627519 2.038318-65.990545 17.707888s22.676288 108.285643-40.129385 136.822095c-61.404329 15.796964-54.907191 40.129385-50.95795 74.908186a2.802687 2.802687 0 0 0 3.694451 2.420503c21.529734-8.025877 28.026872 6.624533 29.173426 9.9368a2.038318 2.038318 0 0 0 0.891765 1.146554l11.338143 9.427221H275.937298l3.949241-7.261508a2.802687 2.802687 0 0 0 0-3.439662 51.594924 51.594924 0 0 0-18.981836-8.790246c-8.917641 0-24.205026 15.924359-32.103509 18.727046a3.567056 3.567056 0 0 1-2.547897 0l-19.746206-8.025877a3.057477 3.057477 0 0 0-2.930082 0l-6.497138 5.350585a3.057477 3.057477 0 0 1-1.783529 0z" fill="#C29A6C" p-id="3591"></path><path d="M648.567305 464.609107s-1.910923-11.720328 7.771088-6.369744c0-15.66957 16.943518-12.739487 16.943518-12.739487s6.624533-10.318985 15.924359-7.388903c5.350585-4.71361 3.184872-12.739487 17.453098-4.076636 7.388903-7.771087 23.313262-25.478975 32.995272-10.573775 10.573775-12.739487 24.077631-4.841005 25.478975 7.516298 12.739487 1.910923 25.478975-2.420503 30.82956 13.886041a38.218462 38.218462 0 0 1 26.498134 8.662852s50.95795 25.478975 2.802687 40.129385H815.327196a13.503857 13.503857 0 0 1-12.739488 1.019159c-7.771087-3.312267-9.172431 4.076636-12.739487-4.71361a58.474247 58.474247 0 0 1-29.300821-2.802687 15.796964 15.796964 0 0 1-11.083354-0.891765s-1.019159 15.796964-7.771088 1.910923c-6.369744-5.095795-25.478975 4.204031-27.262503-1.910923s-5.095795 7.643692-11.720328-2.165712c0 0-8.917641 9.299826-15.924359 4.331425a85.354566 85.354566 0 0 1-25.478975 5.47798s-8.917641 16.433939-17.707888 5.987559c-11.975118-14.268226-11.720328-8.280667-10.701169-21.147549a13.631252 13.631252 0 0 1 15.669569-14.140831zM763.477482 635.955213s-22.931077 7.006718-8.662851 19.8736a14.268226 14.268226 0 0 0 19.61881 2.293108s16.051754 7.643692 26.115949-0.764369c5.095795 8.917641 12.739487 1.019159 12.739488 1.019159s15.032595 5.605374 21.147549 0c8.917641-1.783528 9.9368 3.694451 9.9368 3.694451a20.510575 20.510575 0 0 0 9.9368 0c5.605374-1.401344 18.344862 9.045036 27.772083 2.165713 10.318985-0.891764 22.039313 10.701169 28.409057 4.076636a17.962677 17.962677 0 0 0-3.949241-29.683006c-12.739487-15.924359-8.280667-21.402339-36.689724-25.478975-7.134113-12.739487-18.599652-18.344862-41.658124-5.605374-34.524011-30.702165-45.73476 6.624533-45.73476 6.624533s-19.491416 7.771087-18.981836 21.784524zM530.472257 471.361035c0-9.427221-24.332421-10.828564-25.478975 12.739488-9.9368 10.318985 5.987559 11.720328 5.987559 11.720328s0 21.657129 25.478975 17.962677c12.739487 8.790246 29.683006 0.764369 29.173426-3.567056s13.376462 18.854441 29.300821 11.975118 10.318985-3.821846 9.9368-8.917641c0 0 36.562329 6.369744 20.765365-26.243344-17.198308-3.184872-9.045036-1.910923-9.045036-1.910923s5.860164-28.409057-20.63797-29.810401c-10.44638 0-18.727047-1.273949-18.727046-1.273949s-27.007713-30.82956-45.47997 4.204031a37.454093 37.454093 0 0 0-1.273949 13.121672zM345.494899 541.810401s-12.739487-26.625529 15.92436-26.11595a29.937795 29.937795 0 0 1 30.702164-24.077631 87.392884 87.392884 0 0 1 19.746206 10.19159s18.344862-12.739487 29.8104 1.783528c21.657129-6.242349 44.842996 15.66957 33.377457 18.344862 42.295098 33.250062-10.955959 42.549888-14.523015 41.785519s-11.720328 11.083354-19.236626 0c-6.497139 6.879323-25.478975-5.47798-25.478975-5.47798s-32.995272 12.739487-39.237621-1.783528c-15.15999 8.662851-31.084349-14.650411-31.08435-14.65041zM336.959443 596.335407s10.19159-29.555611-25.478975-25.478975c0 0-16.051754-24.077631-39.492411-11.720328-8.280667-28.026872-53.633242-15.796964-51.722319-8.662852-11.975118-2.165713-43.059468 10.828564-36.944514 16.816123-22.294103 2.293108-28.026872 28.409057-28.026872 28.409057s5.605374 35.03359 42.549888 20.510575c8.153272 2.038318 25.478975 1.019159 24.077631-2.293108s24.077631 5.350585 27.389898-5.095794c3.821846 2.930082 39.365016 3.949241 39.365016 0s44.842996 15.41478 48.282658-12.484698zM122.553869 461.679025s-43.569047 24.205026 14.395621 27.262503c26.370739-0.891764 22.421498-11.083354 22.421498-11.083354s4.204031 11.592934 25.478975 8.280667 21.911918-10.828564 21.911918-10.828565 14.268226 1.273949 16.306544-1.146554 14.268226 9.172431 17.707888-8.408061-22.294103-24.205026-22.294103-24.205027a36.562329 36.562329 0 0 0-38.218463-11.210748c-26.243344 5.22319-36.052749 4.204031-39.619806 14.777805-11.210749-0.764369-18.090072 16.561334-18.090072 16.561334zM247.528241 445.88206a17.453098 17.453098 0 0 1 13.758646-26.880318c8.153272-9.809405 7.771087-6.369744 10.828565-6.624534 8.408062 0 15.15999-22.421498 31.721323-11.975118a63.697437 63.697437 0 0 1 52.868873-2.293108s27.644688-3.821846 28.791242 11.338144a27.899477 27.899477 0 0 1 31.339139 29.173426 23.058472 23.058472 0 0 1-32.358298 19.109232c-12.739487 8.408062-28.791242-4.586215-28.791242-4.586216s-26.115949 9.68201-36.434934 1.273949c-7.006718 5.605374-20.38318-3.949241-20.38318-3.949241s-21.529734 7.006718-27.389898 7.898482a47.008709 47.008709 0 0 1-23.950236-12.484698z" fill="#45916A" p-id="3592"></path><path d="M304.47375 396.707639s-26.243344-17.325703-2.165713-35.670565 34.906196-37.454093 51.977109-26.752924c0-22.294103 17.580493-8.917641 17.580492-8.917641a37.071908 37.071908 0 0 1 43.823837-38.218462c-12.739487-36.307539 73.379448-88.029858 91.342125-17.962678 34.269221-18.981836 53.505847 16.306544 53.505847 16.306544a30.956954 30.956954 0 0 1 48.155263 5.605375c32.230903 9.299826 67.137099 31.593929 68.028863 61.786514s-41.02115 10.573775-41.02115 10.573775-52.741478 7.134113-66.754914-4.076636c-11.465539 10.19159-50.95795-4.586215-50.95795-4.586216s-48.664842 15.66957-71.08634-3.567056a52.486688 52.486688 0 0 1 15.796965 38.218462s-4.458821 25.478975-63.697438 11.975118c-30.82956 7.643692-40.129385-6.497139-40.129385-6.497139s-39.747201 21.911918-54.397611 1.783529z" fill="#45916A" p-id="3593"></path></svg>