<?xml version="1.0" standalone="no"?><!DOCTYPE svg PUBLIC "-//W3C//DTD SVG 1.1//EN" "http://www.w3.org/Graphics/SVG/1.1/DTD/svg11.dtd"><svg t="1677494446641" class="icon" viewBox="0 0 1024 1024" version="1.1" xmlns="http://www.w3.org/2000/svg" p-id="61198" xmlns:xlink="http://www.w3.org/1999/xlink" width="48" height="48"><path d="M513.031111 352.974222c21.504 0 42.368 4.209778 62.001778 12.515556 18.965333 8.021333 36.003556 19.505778 50.631111 34.140444 14.627556 14.627556 26.119111 31.665778 34.140444 50.631111 8.305778 19.633778 12.515556 40.497778 12.515556 62.001778s-4.209778 42.368-12.515556 62.001778c-8.021333 18.965333-19.505778 36.003556-34.140444 50.631111-14.627556 14.627556-31.665778 26.119111-50.631111 34.140444-19.633778 8.305778-40.497778 12.515556-62.001778 12.515556s-42.368-4.209778-62.001778-12.515556c-18.965333-8.021333-36.003556-19.505778-50.631111-34.140444-14.627556-14.627556-26.119111-31.665778-34.140444-50.631111-8.305778-19.633778-12.515556-40.497778-12.515556-62.001778s4.209778-42.368 12.515556-62.001778c8.021333-18.965333 19.505778-36.003556 34.140444-50.631111s31.665778-26.119111 50.631111-34.140444c19.633778-8.305778 40.490667-12.515556 62.001778-12.515556m0-4.266666c-90.332444 0-163.555556 73.223111-163.555555 163.555555s73.223111 163.555556 163.555555 163.555556 163.555556-73.223111 163.555556-163.555556-73.230222-163.555556-163.555556-163.555555z" fill="#ffffff" p-id="61199"></path><path d="M513.031111 304.618667c28.032 0 55.224889 5.489778 80.824889 16.312889 24.725333 10.460444 46.933333 25.429333 66.005333 44.501333 19.072 19.072 34.040889 41.28 44.501334 66.005333 10.823111 25.592889 16.312889 52.785778 16.312889 80.824889s-5.489778 55.224889-16.312889 80.824889c-10.460444 24.725333-25.429333 46.933333-44.501334 66.005333-19.072 19.072-41.28 34.040889-66.005333 44.501334-25.592889 10.823111-52.785778 16.312889-80.824889 16.312889s-55.224889-5.489778-80.824889-16.312889c-24.725333-10.460444-46.933333-25.429333-66.005333-44.501334-19.072-19.072-34.040889-41.28-44.501333-66.005333-10.823111-25.592889-16.312889-52.785778-16.312889-80.824889s5.489778-55.224889 16.312889-80.824889c10.460444-24.725333 25.429333-46.933333 44.501333-66.005333 19.072-19.072 41.28-34.040889 66.005333-44.501333 25.592889-10.830222 52.785778-16.312889 80.824889-16.312889m0-5.688889c-117.824 0-213.333333 95.509333-213.333333 213.333333s95.509333 213.333333 213.333333 213.333333 213.333333-95.509333 213.333333-213.333333-95.516444-213.333333-213.333333-213.333333z" fill="#ffffff" p-id="61200"></path><path d="M513.031111 290.396444c29.952 0 59.008 5.866667 86.357333 17.436445 26.417778 11.171556 50.147556 27.171556 70.528 47.552 20.380444 20.380444 36.373333 44.103111 47.552 70.528 11.569778 27.349333 17.436444 56.405333 17.436445 86.357333s-5.866667 59.008-17.436445 86.357334c-11.171556 26.417778-27.171556 50.147556-47.552 70.528-20.380444 20.380444-44.103111 36.373333-70.528 47.552-27.349333 11.569778-56.405333 17.436444-86.357333 17.436444s-59.008-5.866667-86.357333-17.436444c-26.417778-11.171556-50.147556-27.171556-70.528-47.552-20.380444-20.380444-36.373333-44.103111-47.552-70.528-11.569778-27.349333-17.436444-56.405333-17.436445-86.357334s5.866667-59.008 17.436445-86.357333c11.171556-26.417778 27.171556-50.147556 47.552-70.528 20.380444-20.380444 44.103111-36.373333 70.528-47.552 27.342222-11.576889 56.398222-17.436444 86.357333-17.436445m0-5.688888c-125.674667 0-227.555556 101.880889-227.555555 227.555555s101.880889 227.555556 227.555555 227.555556 227.555556-101.880889 227.555556-227.555556-101.880889-227.555556-227.555556-227.555555zM675.648 775.445333c-47.246222 29.262222-102.961778 46.151111-162.616889 46.151111s-115.370667-16.888889-162.616889-46.151111l4.110222-4.110222a303.031467 303.031467 0 0 0 40.312889 20.714667c37.432889 15.829333 77.198222 23.857778 118.193778 23.857778 40.995556 0 80.760889-8.028444 118.193778-23.857778 14.008889-5.923556 27.463111-12.842667 40.312889-20.714667l4.110222 4.110222zM675.648 249.080889l-4.110222 4.110222a303.031467 303.031467 0 0 0-40.312889-20.714667c-37.432889-15.829333-77.198222-23.857778-118.193778-23.857777-40.995556 0-80.760889 8.028444-118.193778 23.857777a303.031467 303.031467 0 0 0-40.312889 20.714667l-4.110222-4.110222c47.246222-29.262222 102.961778-46.151111 162.616889-46.151111s115.370667 16.888889 162.616889 46.151111zM822.364444 512.263111c0 59.655111-16.888889 115.370667-46.151111 162.616889l-4.110222-4.110222a303.031467 303.031467 0 0 0 20.714667-40.312889c15.829333-37.432889 23.857778-77.198222 23.857778-118.193778 0-40.995556-8.028444-80.760889-23.857778-118.193778a303.031467 303.031467 0 0 0-20.714667-40.312889l4.110222-4.110222c29.262222 47.246222 46.151111 102.961778 46.151111 162.616889z" fill="#ffffff" p-id="61201"></path><path d="M698.837333 225.891556l-4.096 4.096c-16.142222-10.424889-33.201778-19.434667-51.064889-26.993778-41.372444-17.500444-85.333333-26.375111-130.645333-26.375111s-89.272889 8.874667-130.645333 26.375111c-17.863111 7.559111-34.922667 16.568889-51.064889 26.993778l-4.096-4.096c53.468444-34.773333 117.276444-54.961778 185.806222-54.961778s132.337778 20.188444 185.806222 54.961778zM854.364444 512.263111c0 68.529778-20.188444 132.337778-54.961777 185.806222l-4.096-4.096c10.424889-16.142222 19.434667-33.201778 26.993777-51.064889 17.500444-41.372444 26.375111-85.333333 26.375112-130.645333s-8.874667-89.272889-26.375112-130.645333c-7.559111-17.863111-16.568889-34.922667-26.993777-51.064889l4.096-4.096c34.773333 53.468444 54.961778 117.276444 54.961777 185.806222zM698.837333 798.634667c-53.468444 34.773333-117.276444 54.961778-185.806222 54.961777s-132.337778-20.188444-185.806222-54.961777l4.096-4.096c16.142222 10.424889 33.201778 19.434667 51.064889 26.993777 41.372444 17.500444 85.333333 26.375111 130.645333 26.375112s89.272889-8.874667 130.645333-26.375112c17.863111-7.559111 34.922667-16.568889 51.064889-26.993777l4.096 4.096zM203.761778 642.908444c7.559111 17.863111 16.568889 34.922667 26.993778 51.064889l-4.096 4.096c-34.773333-53.468444-54.961778-117.276444-54.961778-185.806222s20.188444-132.337778 54.961778-185.806222l4.096 4.096c-10.424889 16.142222-19.434667 33.201778-26.993778 51.064889-17.500444 41.372444-26.375111 85.333333-26.375111 130.645333s8.874667 89.272889 26.375111 130.645333z" fill="#ffffff" p-id="61202"></path><path d="M233.244444 630.456889c5.923556 14.008889 12.842667 27.463111 20.714667 40.312889l-4.110222 4.110222c-29.262222-47.246222-46.151111-102.961778-46.151111-162.616889s16.888889-115.370667 46.151111-162.616889l4.110222 4.110222A303.031467 303.031467 0 0 0 233.244444 394.069333c-15.829333 37.432889-23.857778 77.198222-23.857777 118.193778 0 40.995556 8.028444 80.760889 23.857777 118.193778z" fill="#ffffff" p-id="61203"></path><path d="M557.257328 261.743189a8.824889 15.203556 11 1 0 5.80195-29.848447 8.824889 15.203556 11 1 0-5.80195 29.848447Z" fill="#ffffff" p-id="61204"></path><path d="M599.303053 273.807445a8.824889 15.203556 22 1 0 11.390704-28.192983 8.824889 15.203556 22 1 0-11.390704 28.192983Z" fill="#ffffff" p-id="61205"></path><path d="M640.027831 292.203299a8.824889 15.203556 32.997 1 0 16.559564-25.502416 8.824889 15.203556 32.997 1 0-16.559564 25.502416Z" fill="#ffffff" p-id="61206"></path><path d="M675.025193 316.307768a8.824889 15.203556 44.003 1 0 21.123699-21.871939 8.824889 15.203556 44.003 1 0-21.123699 21.871939Z" fill="#ffffff" p-id="61207"></path><path d="M707.324782 348.23782a8.824889 15.203556 55 1 0 24.908047-17.440803 8.824889 15.203556 55 1 0-24.908047 17.440803Z" fill="#ffffff" p-id="61208"></path><path d="M732.486563 382.989699a8.824889 15.203556 66.001 1 0 27.778494-12.367201 8.824889 15.203556 66.001 1 0-27.778494 12.367201Z" fill="#ffffff" p-id="61209"></path><path d="M751.343147 424.242908a8.824889 15.203556 76.998 1 0 29.62754-6.841146 8.824889 15.203556 76.998 1 0-29.62754 6.841146Z" fill="#ffffff" p-id="61210"></path><path d="M763.116614 465.476635a8.824889 15.203556 88.015 1 0 30.388865-1.053237 8.824889 15.203556 88.015 1 0-30.388865 1.053237Z" fill="#ffffff" p-id="61211"></path><path d="M457.241196 248.485827a15.203556 8.824889 79 1 0 17.325501-3.367736 15.203556 8.824889 79 1 0-17.325501 3.367736Z" fill="#ffffff" p-id="61212"></path><path d="M412.877807 263.03216a15.203556 8.824889 68.002 1 0 16.36482-6.611152 15.203556 8.824889 68.002 1 0-16.36482 6.611152Z" fill="#ffffff" p-id="61213"></path><path d="M370.325596 284.312023a15.203556 8.824889 57.003 1 0 14.802852-9.611983 15.203556 8.824889 57.003 1 0-14.802852 9.611983Z" fill="#ffffff" p-id="61214"></path><path d="M334.139837 311.433183a15.203556 8.824889 45.997 1 0 12.695546-12.261231 15.203556 8.824889 45.997 1 0-12.695546 12.261231Z" fill="#ffffff" p-id="61215"></path><path d="M301.229297 346.736576a15.203556 8.824889 35 1 0 10.123496-14.457852 15.203556 8.824889 35 1 0-10.123496 14.457852Z" fill="#ffffff" p-id="61216"></path><path d="M276.076536 384.856492a15.203556 8.824889 23.999 1 0 7.17853-16.124 15.203556 8.824889 23.999 1 0-7.17853 16.124Z" fill="#ffffff" p-id="61217"></path><path d="M257.948123 429.454938a15.203556 8.824889 13.002 1 0 3.970937-17.197276 15.203556 8.824889 13.002 1 0-3.970937 17.197276Z" fill="#ffffff" p-id="61218"></path><path d="M247.448666 473.768182a15.203556 8.824889 2 1 0 0.615968-17.639026 15.203556 8.824889 2 1 0-0.615968 17.639026Z" fill="#ffffff" p-id="61219"></path><path d="M551.488045 779.410094a15.203556 8.824889 79 1 0 17.325502-3.367736 15.203556 8.824889 79 1 0-17.325502 3.367736Z" fill="#ffffff" p-id="61220"></path><path d="M596.822678 768.122106a15.203556 8.824889 68.002 1 0 16.36482-6.611152 15.203556 8.824889 68.002 1 0-16.36482 6.611152Z" fill="#ffffff" p-id="61221"></path><path d="M640.917476 749.890454a15.203556 8.824889 57.003 1 0 14.802853-9.611983 15.203556 8.824889 57.003 1 0-14.802853 9.611983Z" fill="#ffffff" p-id="61222"></path><path d="M679.221918 725.265822a15.203556 8.824889 45.997 1 0 12.695546-12.26123 15.203556 8.824889 45.997 1 0-12.695546 12.26123Z" fill="#ffffff" p-id="61223"></path><path d="M714.721324 692.16312a15.203556 8.824889 35 1 0 10.123497-14.457852 15.203556 8.824889 35 1 0-10.123497 14.457852Z" fill="#ffffff" p-id="61224"></path><path d="M742.77719 655.848566a15.203556 8.824889 23.999 1 0 7.17853-16.124 15.203556 8.824889 23.999 1 0-7.17853 16.124Z" fill="#ffffff" p-id="61225"></path><path d="M764.179602 612.234728a15.203556 8.824889 13.002 1 0 3.970936-17.197277 15.203556 8.824889 13.002 1 0-3.970936 17.197277Z" fill="#ffffff" p-id="61226"></path><path d="M778.003171 568.383189a15.203556 8.824889 2 1 0 0.615969-17.639026 15.203556 8.824889 2 1 0-0.615969 17.639026Z" fill="#ffffff" p-id="61227"></path><path d="M462.992162 792.669601a8.824889 15.203556 11 1 0 5.801951-29.848447 8.824889 15.203556 11 1 0-5.801951 29.848447Z" fill="#ffffff" p-id="61228"></path><path d="M415.372715 778.884515a8.824889 15.203556 22 1 0 11.390704-28.192983 8.824889 15.203556 22 1 0-11.390704 28.192983Z" fill="#ffffff" p-id="61229"></path><path d="M369.459069 757.751104a8.824889 15.203556 32.997 1 0 16.559564-25.502417 8.824889 15.203556 32.997 1 0-16.559564 25.502417Z" fill="#ffffff" p-id="61230"></path><path d="M329.908838 730.169097a8.824889 15.203556 44.003 1 0 21.123699-21.871939 8.824889 15.203556 44.003 1 0-21.123699 21.871939Z" fill="#ffffff" p-id="61231"></path><path d="M293.841655 693.695358a8.824889 15.203556 55 1 0 24.908047-17.440802 8.824889 15.203556 55 1 0-24.908047 17.440802Z" fill="#ffffff" p-id="61232"></path><path d="M265.770197 653.944666a8.824889 15.203556 66.001 1 0 27.778494-12.367201 8.824889 15.203556 66.001 1 0-27.778494 12.367201Z" fill="#ffffff" p-id="61233"></path><path d="M245.130485 607.056673a8.824889 15.203556 76.998 1 0 29.62754-6.841146 8.824889 15.203556 76.998 1 0-29.62754 6.841146Z" fill="#ffffff" p-id="61234"></path><path d="M232.558987 560.105185a8.824889 15.203556 88.015 1 0 30.388865-1.053238 8.824889 15.203556 88.015 1 0-30.388865 1.053238Z" fill="#ffffff" p-id="61235"></path><path d="M513.031111 512.263111m-113.777778 0a113.777778 113.777778 0 1 0 227.555556 0 113.777778 113.777778 0 1 0-227.555556 0Z" fill="#ffffff" p-id="61236"></path><path d="M486.876444 538.410667L334.72 333.944889l204.458667 152.163555L691.342222 690.574222z" fill="#ffffff" p-id="61237"></path><path d="M348.48 347.712l188.679111 140.416 140.416 188.679111L488.896 536.391111 348.48 347.712m-3.463111-3.470222L488.391111 536.903111l192.654222 143.374222L537.671111 487.616 345.016889 344.241778z" fill="#ffffff" p-id="61238"></path><path d="M488.384 536.910222L345.009778 344.248889l168.014222 168.021333zM537.678222 487.608889l143.374222 192.661333-168.014222-168.014222z" fill="#ffffff" p-id="61239"></path><path d="M486.876444 486.108444L691.342222 333.944889 539.178667 538.410667 334.72 690.574222z" fill="#ffffff" p-id="61240"></path><path d="M677.582222 347.712L537.159111 536.391111 348.48 676.807111l140.416-188.679111 188.686222-140.416m3.463111-3.470222L488.391111 487.616 345.016889 680.277333 537.671111 536.903111l143.374222-192.661333z" fill="#ffffff" p-id="61241"></path><path d="M488.384 487.608889l192.654222-143.374222-168.014222 168.021333zM537.678222 536.910222L345.024 680.284444l168.014222-168.014222z" fill="#ffffff" p-id="61242"></path><path d="M513.031111 564.366222l-355.299555-52.103111 355.299555-52.110222 355.299556 52.110222z" fill="#ffffff" p-id="61243"></path><path d="M513.031111 463.879111l329.884445 48.376889-329.884445 48.376889-329.884444-48.376889 329.884444-48.376889m0-0.718222l-334.784 49.102222 334.784 49.102222 334.784-49.102222-334.784-49.102222z" fill="#ffffff" p-id="61244"></path><path d="M513.031111 561.372444l-334.784-49.095111h334.784zM513.031111 463.146667l334.776889 49.102222H513.031111z" fill="#ffffff" p-id="61245"></path><path d="M460.920889 512.263111l52.110222-355.306667 52.103111 355.299556-52.103111 355.306667z" fill="#ffffff" p-id="61246"></path><path d="M513.031111 182.378667l48.376889 329.884444-48.376889 329.884445-48.376889-329.884445 48.376889-329.884444m0-4.899556L463.928889 512.263111l49.102222 334.784 49.102222-334.784-49.102222-334.784z" fill="#ffffff" p-id="61247"></path><path d="M463.914667 512.263111l49.102222-334.784v334.784zM562.140444 512.263111l-49.095111 334.776889V512.263111z" fill="#ffffff" p-id="61248"></path><path d="M513.031111 512.263111m-49.777778 0a49.777778 49.777778 0 1 0 99.555556 0 49.777778 49.777778 0 1 0-99.555556 0Z" fill="#ffffff" p-id="61249"></path><path d="M513.031111 512.263111m-39.111111 0a39.111111 39.111111 0 1 0 78.222222 0 39.111111 39.111111 0 1 0-78.222222 0Z" fill="#ffffff" p-id="61250"></path><path d="M277.44 269.944889l1.265778 1.265778c-3.349333 4.074667-3.214222 4.48 1.678222 9.28l18.417778 18.510222c-4.572444-11.989333-11.541333-30.904889-13.937778-36.472889l1.173333-1.173333c5.653333 2.581333 23.217778 9.912889 34.844445 14.663111-15.068444-16.611556-18.595556-20.231111-19.456-21.091556-2.581333-2.488889-4.074667-1.720889-7.466667 1.038222l-1.265778-1.265777 10.723556-10.723556 1.265778 1.265778c-2.353778 2.894222-2.894222 4.522667-0.810667 7.331555 1.720889 2.261333 3.299556 3.939556 18.645333 21.632 2.168889 2.531556 3.392 2.851556 7.736889-0.768l1.265778 1.265778-7.872 7.872-32.945778-12.942222 12.216889 33.671111-7.921778 7.921778-1.265777-1.265778c3.441778-4.344889 3.527111-5.248 0.270222-8.327111l-17.557334-17.194667c-5.020444-4.657778-5.383111-4.750222-9.777777-1.173333l-1.265778-1.265778 12.039111-12.053333zM268.565333 323.889778c3.754667 2.218667 7.964444 3.889778 12.216889-0.362667 3.527111-3.527111 2.176-7.331556-0.177778-9.685333-3.121778-3.121778-6.698667-2.716444-12.401777-0.903111-8.234667 2.624-12.672 2.894222-16.967111-1.400889-4.750222-4.750222-4.252444-12.487111 1.585777-18.325334 2.716444-2.716444 5.838222-4.295111 8.419556-5.425777 1.628444 0.903111 5.248 3.441778 8.007111 5.568l-1.038222 1.763555c-3.939556-2.126222-9.863111-4.074667-14.570667 0.632889-3.256889 3.256889-2.986667 7.509333-0.042667 10.453333 3.484444 3.484444 6.741333 3.029333 12.899556 1.223112 7.331556-2.168889 12.174222-2.673778 16.384 1.536 4.024889 4.024889 4.48 11.178667-1.493333 17.152-2.531556 2.531556-5.703111 4.344889-6.833778 5.112888-1.813333-1.450667-3.797333-3.079111-7.104-5.653333l1.116444-1.685333z" fill="#ffffff" p-id="61251"></path><path d="M758.919111 742.727111c5.063111 2.517333 9.521778 3.292444 13.831111-1.024 2.474667-2.474667 2.752-6.023111 0.135111-8.632889-2.808889-2.808889-6.172444-2.069333-11.832889 0.192-8.760889 3.406222-13.767111 4.48-18.083555 0.170667-6.016-6.016-3.143111-15.025778 2.439111-20.615111 3.676444-3.676444 7.978667-5.888 10.247111-6.584889 2.247111 1.543111 6.478222 4.501333 8.924445 6.371555l-1.728 2.382223c-5.454222-2.908444-11.328-3.832889-16.284445 1.116444-2.688 2.688-3.249778 6.648889-0.504889 9.393778 2.944 2.944 6.357333 2.538667 11.804445 0.483555 7.175111-2.730667 13.297778-4.664889 18.005333 0.035556 4.771556 4.771556 4.046222 12.821333-2.602667 19.463111-2.972444 2.972444-6.030222 4.721778-7.637333 5.937778-1.777778-1.358222-6.392889-4.977778-8.32-6.193778l1.607111-2.496zM709.397333 761.528889c-0.704-9.756444 3.136-15.815111 5.397334-18.083556 8.632889-8.632889 20.401778-7.324444 27.918222 0.192 4.444444 4.444444 6.869333 10.261333 6.840889 16.035556 0.099556 6.044444-2.090667 11.633778-5.767111 15.310222-6.151111 6.151111-15.722667 5.916444-20.956445 0.689778-1.237333-1.379556-1.614222-2.176-0.739555-3.569778 1.152-1.678222 9.621333-11.320889 17.777777-19.996444-8.547556-8.974222-17.941333-6.769778-22.961777-1.742223-2.901333 2.901333-4.472889 6.698667-4.871111 11.541334l-2.638223-0.376889z m33.607111 9.28c3.256889-3.256889 3.626667-9.244444-0.675555-15.530667-3.960889 3.960889-7.921778 7.921778-11.896889 12.288-1.272889 1.272889-1.372444 2.026667-0.391111 3.008 3.384889 3.534222 9.002667 4.195556 12.963555 0.234667z" fill="#ffffff" p-id="61252"></path><path d="M718.037333 292.124444l1.827556-1.827555c4.131556 3.349333 4.977778 3.278222 9.422222-1.166222l10.787556-10.787556c4.572444-4.572444 6.037333-9.258667 1.784889-13.511111-2.645333-2.645333-6.727111-3.584-10.552889-3.754667l-15.296 15.296c-4.508444 4.508444-4.252444 5.027556-0.846223 9.223111l-1.827555 1.827556-13.923556-13.923556 1.827556-1.827555c4.707556 3.797333 5.361778 3.918222 9.671111-0.391111l13.468444-13.468445c4.245333-4.245333 3.996444-4.899556 1.102223-8.967111l1.699555-1.699555c3.683556 2.638222 7.687111 4.942222 11.640889 6.407111l-5.162667 5.162666c2.204444 0.369778 4.600889 0.810667 7.388445 1.372445 2.979556 0.625778 5.44 1.521778 7.310222 3.392 5.155556 5.155556 4.522667 12.238222-1.820444 18.574222l-12.423111 12.423111c-4.444444 4.444444-4.252444 5.027556-0.910223 9.159111l-1.827555 1.827556-13.340445-13.340445zM764.131556 327.111111c-9.351111 1.102222-14.976-2.296889-17.038223-4.359111-7.864889-7.864889-6.094222-19.171556 1.422223-26.688 4.444444-4.444444 10.112-7.018667 15.630222-7.253333 5.781333-0.369778 11.022222 1.479111 14.371555 4.828444 5.610667 5.610667 4.956444 14.762667-0.270222 19.996445-1.372444 1.244444-2.154667 1.635556-3.448889 0.867555-1.550222-1.024-10.389333-8.689778-18.318222-16.099555-8.952889 8.568889-7.260444 17.443556-2.688 22.023111 2.645333 2.645333 6.200889 3.982222 10.808889 4.138666l-0.469333 2.545778z m10.360888-32.526222c-2.965333-2.965333-8.675556-3.057778-14.876444 1.336889 3.612444 3.612444 7.217778 7.217778 11.214222 10.823111 1.159111 1.159111 1.877333 1.223111 2.851556 0.241778 3.534222-3.399111 4.416-8.789333 0.810666-12.401778z" fill="#ffffff" p-id="61253"></path><path d="M265.194667 750.051556l1.265777-1.265778c3.448889 2.723556 3.832889 2.56 8.632889-2.318222l18.503111-18.424889c-11.363556 5.198222-29.276444 13.176889-34.574222 15.836444l-0.981333-0.981333c2.837333-5.397333 11.029333-22.094222 16.362667-33.144889-16.476444 15.196444-20.088889 18.737778-20.949334 19.598222-2.496 2.574222-1.92 3.875556 0.32 6.748445l-1.265778 1.265777-8.917333-8.917333 1.265778-1.265778c2.453333 1.912889 3.896889 2.268444 6.641778 0.128 2.218667-1.763556 3.882667-3.356444 21.376-18.894222 2.503111-2.204444 2.894222-3.349333-0.049778-7.018667l1.265778-1.265777 6.542222 6.542222-14.627556 31.260444 31.857778-14.030222 6.584889 6.584889-1.265778 1.265778c-3.690667-2.780444-4.508444-2.787556-7.601778 0.455111l-17.223111 17.528889c-4.693333 4.992-4.807111 5.333333-1.898666 9.052444l-1.265778 1.265778-9.998222-10.005333zM332.088889 760.654222c-2.552889-2.190222-4.138667-2.332444-6.300445-0.327111-1.080889 1.002667-3.050667 2.830222-7.217777 6.990222l-4.885334 4.885334c-4.615111 4.615111-8.597333 7.694222-13.539555 8.270222-3.989333 0.448-7.224889-1.429333-9.820445-4.024889-2.183111-2.183111-3.968-5.056-4.088889-8.248889-0.177778-4.337778 1.856-8.554667 7.153778-13.845333l11.541334-11.541334c4.074667-4.074667 4.046222-4.643556 1.351111-7.971555l1.265777-1.265778 9.891556 9.891556-1.265778 1.265777c-3.235556-2.780444-3.896889-2.723556-7.971555 1.351112l-11.313778 11.313777c-6.606222 6.606222-7.630222 12.821333-3.114667 17.336889 5.340444 5.340444 11.015111 3.050667 18.531556-4.458666l4.615111-4.615112c4.167111-4.16 5.767111-5.994667 6.919111-7.296 1.92-2.147556 1.827556-3.783111-0.775111-6.748444l1.265778-1.265778 9.031111 9.031111-1.272889 1.272889z" fill="#ffffff" p-id="61254"></path><path d="M257.272889 251.655111a336.867556 336.867556 0 0 0-4.508445 4.508445l-62.236444-62.236445 4.508444-4.508444 62.236445 62.236444zM836.216889 830.599111l-4.508445 4.508445-62.620444-62.620445c1.521778-1.486222 3.022222-2.986667 4.508444-4.508444l62.620445 62.620444z" fill="#ffffff" p-id="61255"></path><path d="M768.789333 251.655111c1.514667 1.486222 3.022222 2.993778 4.508445 4.508445l62.236444-62.236445-4.508444-4.508444-62.236445 62.236444zM189.845333 830.599111l4.508445 4.508445 62.620444-62.620445c-1.521778-1.486222-3.022222-2.986667-4.508444-4.508444l-62.620445 62.620444z" fill="#ffffff" p-id="61256"></path><path d="M546.168889 46.897778c-5.639111 0.739556-7.395556 1.941333-7.672889 6.101333-0.277333 3.605333-0.554667 6.748444-0.554667 14.791111v36.792889h-5.176889l-38.549333-46.222222v20.892444c0 8.042667 0.184889 11.648 0.462222 14.328889 0.369778 4.067556 2.311111 6.193778 9.152 6.563556v3.420444h-22.926222v-3.420444c5.269333-0.462222 7.580444-1.848889 8.135111-6.193778 0.369778-3.328 0.554667-6.656 0.554667-14.698667V57.344c0-3.050667-0.184889-5.084444-1.941333-7.488-1.664-2.311111-3.882667-2.588444-7.765334-2.958222v-3.420445h18.026667l35.221333 40.952889v-16.64c0-8.042667-0.092444-11.093333-0.369778-14.513778-0.277333-3.975111-1.756444-5.916444-9.429333-6.378666v-3.420445h22.833778v3.420445zM530.659556 934.819556c-2.268444-5.916444-5.44-12.664889-15.872-12.664889-6.577778 0-10.887111 3.790222-10.887112 8.967111 0 5.084444 4.195556 8.135111 14.172445 12.202666 12.131556 4.899556 19.84 9.706667 19.84 18.858667 0 10.908444-11.114667 18.858667-27.328 18.858667-7.260444 0-13.717333-1.571556-19.050667-2.865778-0.682667-2.126222-2.609778-11.740444-3.399111-16.085333l4.423111-0.832c2.268444 5.824 8.618667 15.900444 19.733334 15.900444 6.919111 0 11.114667-3.512889 11.114666-9.429333 0-5.361778-4.081778-8.504889-13.603555-12.664889-11.790222-5.176889-19.505778-9.799111-19.505778-19.413333 0-9.706667 9.294222-17.379556 26.304-17.379556 7.822222 0 13.717333 1.386667 16.213333 1.664 0.455111 3.420444 1.244444 8.227556 2.154667 14.051556l-4.309333 0.832z" fill="#ffffff" p-id="61257"></path><path d="M935.914667 544.263111c-2.496-0.568889-13.127111-3.761778-15.715556-4.792889v-59.207111h3.328c0.832 10.382222 1.294222 11.064889 9.059556 11.064889h35.313777c7.857778 0 8.412444-1.372444 8.967112-9.123556h3.420444v37.077334c0 11.975111 0.092444 15.971556 0.184889 17.571555-1.664 0.113778-9.244444 0.682667-14.976 1.137778l-0.462222-4.451555c3.143111-1.024 6.933333-2.965333 8.597333-4.906667 1.848889-2.055111 2.403556-3.534222 2.403556-9.351111V511.857778c0-4.337778-0.184889-4.792889-3.328-4.792889h-19.320889v11.178667c0 6.385778 1.386667 7.530667 7.950222 9.244444v4.451556h-20.615111v-4.451556c6.840889-1.827556 7.950222-2.737778 7.950222-9.358222v-11.064889h-15.900444c-6.378667 0-8.32 0.227556-8.412445 7.303111v8.099556c0 6.385778 0.647111 8.099556 3.143111 10.609777 2.680889 2.851556 6.101333 5.134222 9.244445 6.961778l-0.832 4.224zM45.589333 523.584h3.420445c0.739556 7.025778 1.386667 7.488 9.706666 7.488l36.053334-0.092444c-15.900444-6.656-33.464889-13.959111-49.180445-20.615112v-3.050666c15.068444-6.008889 32.263111-12.572444 48.440889-19.228445-29.027556-1.201778-34.759111-1.201778-38.087111-1.201777-4.992 0.092444-6.286222 1.941333-6.933333 8.874666h-3.420445v-22.926222h3.420445c0.462222 5.269333 1.479111 7.672889 7.025778 8.412444 2.773333 0.369778 8.042667 0.739556 38.549333 2.865778 4.437333 0.277333 6.933333-0.369778 7.672889-8.32h3.420444v19.968l-40.768 17.841778 40.768 17.934222v19.505778h-3.420444c-0.739556-7.395556-1.479111-8.227556-8.874667-8.042667l-34.666667 0.739556c-8.32 0.092444-8.689778 0.462222-9.706666 7.950222h-3.420445v-28.103111z" fill="#ffffff" p-id="61258"></path></svg>