<?xml version="1.0" standalone="no"?><!DOCTYPE svg PUBLIC "-//W3C//DTD SVG 1.1//EN" "http://www.w3.org/Graphics/SVG/1.1/DTD/svg11.dtd"><svg t="1669982985078" class="icon" viewBox="0 0 1024 1024" version="1.1" xmlns="http://www.w3.org/2000/svg" p-id="2301" width="48" height="48" xmlns:xlink="http://www.w3.org/1999/xlink"><path d="M863.19313934 160.80686066c193.9639707 193.9639707 193.9639707 508.42230798 0 702.38627868S354.77083136 1057.15711005 160.80686066 863.19313934-33.15711005 354.77083136 160.80686066 160.80686066s508.42230798-193.9639707 702.38627868 0" fill="#2196F3" p-id="2302"></path><path d="M792.95451098 231.04548902c155.17468878 155.17468878 155.17468795 406.73433401 0 561.90902196S386.2201778 948.12919976 231.04548902 792.95451098 75.87080024 386.2201778 231.04548902 231.04548902s406.73433401-155.17468795 561.90902196 0" fill="#EEEEEE" p-id="2303"></path><path d="M266.16480237 266.16480237l210.71588345 280.95451181 280.95451181 210.71588345-210.71588345-280.95451181z" fill="#90A4AE" p-id="2304"></path><path d="M164.35391108 512l347.64608892 49.65870933 347.64608892-49.65870933-347.64608892-49.65870933z" fill="#90A4AE" p-id="2305"></path><path d="M266.16480237 757.83519763l280.95451181-210.71588345 210.71588345-280.95451181-280.93695241 210.69832406z" fill="#90A4AE" p-id="2306"></path><path d="M512 859.64608892l74.4880648-347.64608892-148.9761296 0z" fill="#3F51B5" p-id="2307"></path><path d="M437.5119352 512l148.9761296 0-74.4880648-347.64608892z" fill="#FF3D00" p-id="2308"></path><path d="M538.33948543 485.66051457a37.24965752 37.24965752 0 1 1-52.64385209 52.67897087A37.24965752 37.24965752 0 0 1 538.33948543 485.66051457" fill="#FFFFFF" p-id="2309"></path></svg>