<?xml version="1.0" standalone="no"?><!DOCTYPE svg PUBLIC "-//W3C//DTD SVG 1.1//EN" "http://www.w3.org/Graphics/SVG/1.1/DTD/svg11.dtd"><svg t="1677495211798" class="icon" viewBox="0 0 1024 1024" version="1.1" xmlns="http://www.w3.org/2000/svg" p-id="1935" xmlns:xlink="http://www.w3.org/1999/xlink" width="48" height="48"><path d="M863.19313934 160.80686066c193.9639707 193.9639707 193.9639707 508.42230798 0 702.38627868S354.77083136 1057.15711005 160.80686066 863.19313934-33.15711005 354.77083136 160.80686066 160.80686066s508.42230798-193.9639707 702.38627868 0" fill="#bfbfbf" p-id="1936"></path><path d="M831.66379916 192.33620084c176.55431257 176.55431257 176.55431163 462.7732867 0 639.32759832S368.89051341 1008.21811172 192.33620084 831.66379916 15.78188828 368.89051341 192.33620084 192.33620084s462.7732867-176.55431163 639.32759832 0" fill="#cdcdcd" p-id="1937"></path><path d="M333.96702652 333.96702652l152.5996914 203.46625557 203.46625556 152.59969139-152.59969139-203.46625556z" fill="#ffffff" p-id="1938"></path><path d="M260.2359421 512l251.7640579 35.96266022 251.7640579-35.96266022-251.7640579-35.96266022z" fill="#ffffff" p-id="1939"></path><path d="M333.96702652 690.03297348l203.46625557-152.5996914 152.59969139-203.46625556-203.45353912 152.58697494z" fill="#ffffff" p-id="1940"></path><path d="M512 933.91359414l90.4009225-421.91359414-180.801845 0z" fill="#3F51B5" p-id="1941"></path><path d="M421.5990775 512l180.801845 0-90.4009225-421.91359414z" fill="#FF3D00" p-id="1942"></path><path d="M538.33948543 485.66051457a37.24965752 37.24965752 0 1 1-52.64385209 52.67897087A37.24965752 37.24965752 0 0 1 538.33948543 485.66051457" fill="#FFFFFF" p-id="1943"></path></svg>