<?xml version="1.0" standalone="no"?><!DOCTYPE svg PUBLIC "-//W3C//DTD SVG 1.1//EN" "http://www.w3.org/Graphics/SVG/1.1/DTD/svg11.dtd"><svg t="1677219523072" class="icon" viewBox="0 0 1024 1024" version="1.1" xmlns="http://www.w3.org/2000/svg" p-id="1898" width="48" height="48" xmlns:xlink="http://www.w3.org/1999/xlink"><path d="M513.066173 1001.04174l-21.465618-18.314484c-60.345396-51.484313-61.316798-52.029246-63.946691-53.521888l-2.558815-1.445257-2.890514-0.544933c-100.172883-18.812031-192.550856-74.632115-260.098843-157.106525A469.11615 469.11615 0 0 1 55.914854 473.854697 454.592503 454.592503 0 0 1 189.494493 151.34919 454.592503 454.592503 0 0 1 512 17.769551a454.592503 454.592503 0 0 1 322.505507 133.579639A454.592503 454.592503 0 0 1 968.085146 473.854697c0 52.432022-8.83739 104.011106-26.25155 153.220916a462.719112 462.719112 0 0 1-73.163166 132.466081 470.063859 470.063859 0 0 1-251.948542 164.166959c-4.572698 0.52124-7.344748 2.629894-25.327534 16.395373a10288.214715 10288.214715 0 0 0-78.328181 60.937714z" fill="#0e932e" fill-opacity="0.37" p-id="1899"></path><path d="M512 35.539102A435.448774 435.448774 0 0 0 202.075335 163.930032 435.448774 435.448774 0 0 0 73.684405 473.854697c0 103.300324 36.29727 204.491994 102.186766 284.999907 64.894401 79.252198 153.528922 132.845164 249.626654 150.899029l5.781027 1.089865 5.117631 2.890514c4.312078 2.440352 5.093938 2.866821 66.742434 55.488385l10.377418 8.861083a10808.909949 10808.909949 0 0 1 67.074132-52.124017c18.646182-14.239334 24.16659-18.45664 32.719667-19.736048a452.294308 452.294308 0 0 0 241.428968-157.67515 444.996946 444.996946 0 0 0 70.367423-127.395836A440.447941 440.447941 0 0 0 950.315595 473.854697c0-117.089496-45.584822-227.142249-128.39093-309.924665A435.448774 435.448774 0 0 0 512 35.539102M512 0c261.709949 0 473.854697 212.144748 473.854697 473.854697 0 222.190467-153.197224 413.201296-366.218603 467.457658-1.776955 0.071078-107.328089 82.687645-106.854234 82.687645-0.52124 0-90.316705-77.333087-93.846922-79.323276C205.155391 904.517538 38.145303 706.280426 38.145303 473.854697 38.145303 212.144748 250.290051 0 512 0z" fill="#0e932e" p-id="1900"></path><path d="M668.348357 527.376585l-4.051457-5.307173a6.894586 6.894586 0 0 0-9.619251-1.255715l-53.427117 41.083203c-4.951782 1.871726-16.750764 5.496714-15.518741-3.601296a80.034058 80.034058 0 0 0-6.562888-27.838964c0-0.592318 0.213235-1.160944 0-1.705876l-40.656733-92.069968a6.8472 6.8472 0 0 0-9.026932-3.506525l-10.92235 4.738547a6.8472 6.8472 0 0 0-3.506525 9.050625l34.093845 77.19093c19.854512 111.711245-77.688478 72.997316-77.688477 72.997316l-13.670708-27.98112a6.894586 6.894586 0 0 0-9.169089-3.151134l-6.017954 2.961592a6.894586 6.894586 0 0 0-3.127441 9.169089l18.077556 36.81851a108.252106 108.252106 0 0 1 2.369274 60.203239 47.977788 47.977788 0 0 1-22.057936 34.615085h-32.861824a6.894586 6.894586 0 0 0-6.8472 6.847201v6.728737a6.894586 6.894586 0 0 0 6.8472 6.8472h158.88348a6.894586 6.894586 0 0 0 6.847201-6.8472v-6.705044a6.894586 6.894586 0 0 0-6.847201-6.847201h-25.540768c-19.380657-9.737714-38.38223-37.742527-17.651087-57.312725 13.883943-13.125775 44.139565-36.913281 66.339657-54.066821h0.26062l26.062009-20.067747 53.640351-41.249051a6.799815 6.799815 0 0 0 1.255715-9.477094z m-393.299398-29.165757c0 37.031745 50.583989 67.05044 112.990652 67.05044s112.990652-30.018695 112.990653-67.05044-50.607682-67.05044-112.990653-67.050439S275.072652 461.179084 275.072652 498.210828z m67.168903-159.262563c0 43.262934 63.401758 78.351874 141.611476 78.351874s141.611476-35.065248 141.611476-78.351874S562.039056 260.620083 483.853031 260.620083s-141.611476 35.065248-141.611476 78.328182z m233.8236 109.531513c0 32.861823 42.481074 59.492457 94.913096 59.492457s94.770939-26.630634 94.770939-59.492457-42.338917-59.539843-94.699861-59.539843-94.913096 26.630634-94.913096 59.492457z" fill="#0e932e" p-id="1901"></path></svg>