<?xml version="1.0" standalone="no"?><!DOCTYPE svg PUBLIC "-//W3C//DTD SVG 1.1//EN" "http://www.w3.org/Graphics/SVG/1.1/DTD/svg11.dtd"><svg t="1677498151082" class="icon" viewBox="0 0 1024 1024" version="1.1" xmlns="http://www.w3.org/2000/svg" p-id="2187" xmlns:xlink="http://www.w3.org/1999/xlink" width="32" height="32"><path d="M676.40939806 778.23644018a72.68066078 72.68066078 0 0 1-6.15193013 4.80729395c-0.9579431 0.72065463-1.94225235 1.40615542-2.90898391 2.10923312C527.49753333 884.01448554 513.26899763 999.42469647 512.05618837 1030.07888559L511.99466914 1029.20003865c-8.39299017-124.63810575-108.90674157-210.04447375-145.19434159-236.95477432a263.65415182 263.65415182 0 1 1 309.60907051-14.00882415zM511.99466914 1037.98851039s-0.14061538-2.83867621 0.06151923-7.9096248C522.19808474 1180.88027191 511.99466914 1037.98851039 511.99466914 1037.98851039z" fill="#01B26D" p-id="2188"></path><path d="M511.99466914 308.54535777a263.60142105 263.60142105 0 0 1 164.41472892 469.69108241 72.68066078 72.68066078 0 0 1-6.15193013 4.80729395c-0.9579431 0.72065463-1.94225235 1.40615542-2.90898391 2.10923313a486.27492891 486.27492891 0 0 0-26.25116517 19.93225427L328.16620596 383.24736708A262.72257334 262.72257334 0 0 1 511.99466914 308.54535777z" fill="#5abd7d" p-id="2189"></path><path d="M477.26262917 414.16521083c98.18480595-4.13937008 156.6896626 79.81690017 119.00469563 163.15797734-15.81924879 35.07479076-46.57890023 50.09428877-85.37121492 63.73399675l10.34403177 25.48656824c39.75904625-14.6591711 71.4678523-29.33591832 93.1577997-61.18533978 23.39491205-34.38928997 15.66984495-71.40633307 33.63348149-66.28265373a89.25571884 89.25571884 0 0 1 25.87326055 30.5926699 66.24749989 66.24749989 0 0 1-77.61099321 89.22935345c-12.59388027 7.16260478-46.90407332 26.16328057-59.50674204 38.23864005A373.94947189 373.94947189 0 0 1 547.14855605 771.06504772c-15.25678725 5.09731396-42.47468399 2.75079159-62.09055288 2.5486562a26.80483904 26.80483904 0 0 1-5.17640933-12.74328411c6.15193013-9.08727942 2.29379082-22.85002664 5.17640933-35.68998308 6.60893092-29.37986063 10.68678176-62.11691826-7.76022016-84.12325181a182.25532623 182.25532623 0 0 1-51.73773342-20.39804274c-42.14072168-29.9774768-63.44397753-109.31101158-25.87326056-160.60932037a136.01038831 136.01038831 0 0 1 49.15392259-38.23864083 107.65877847 107.65877847 0 0 1 28.42191755-7.64597015z" fill="#FFFFFF" p-id="2190"></path></svg>