<?xml version="1.0" standalone="no"?><!DOCTYPE svg PUBLIC "-//W3C//DTD SVG 1.1//EN" "http://www.w3.org/Graphics/SVG/1.1/DTD/svg11.dtd"><svg t="1677219076976" class="icon" viewBox="0 0 1024 1024" version="1.1" xmlns="http://www.w3.org/2000/svg" p-id="1928" width="32" height="32" xmlns:xlink="http://www.w3.org/1999/xlink"><path d="M512.00919309 643.69558644m194.22882183 2e-8a194.22882183 194.22882183 0 1 0-388.45764465 0 194.22882183 194.22882183 0 1 0 388.45764463 0Z" fill="#0061b2" p-id="1929"></path><path d="M512.00919309 1010.66666667A366.97108023 366.97108023 0 1 0 145.03811188 643.69558644 366.97108023 366.97108023 0 0 0 512.00919309 1010.66666667z m-190.80553966-557.77661986A269.83239118 269.83239118 0 1 1 702.81473173 834.50112512a269.83239118 269.83239118 0 1 1-381.6110783-381.61107831z" fill="#0061b2" p-id="1930"></path><path d="M355.04802617 234.746801L668.970359 234.746801A37.5347198 37.5347198 0 0 0 695.5068725 170.62701144l-156.96116692-156.96116689a37.51044117 37.51044117 0 0 0-53.073026-1e-8L328.51151266 170.62701144a37.5347198 37.5347198 0 0 0 26.53651351 64.11978956z" fill="#0061b2" p-id="1931"></path></svg>